<svg width="28" height="18" viewBox="0 0 28 18" fill="none" xmlns="http://www.w3.org/2000/svg">
<g clip-path="url(#clip0_308_683)">
<path fill-rule="evenodd" clip-rule="evenodd" d="M0.5 10.4311C0.5 11.6855 1.13281 12.4686 2.08203 13.1893C3.49531 14.2635 6.13203 15.0952 8.00234 15.407C9.12031 15.5941 10.4211 15.8367 11.6797 15.8367C11.4477 16.1486 11.1031 16.1347 11.1031 16.7169C11.1031 17.1604 11.4617 17.493 11.8906 17.493C12.2211 17.493 12.5375 17.2089 12.7555 17.0495C13.0297 16.8485 13.2406 16.6891 13.5078 16.4951C14.2109 15.9753 14.7875 15.7258 14.7875 15.109C14.7875 14.617 14.3375 14.4021 14.0422 14.1804C13.7187 13.9378 12.4039 12.8705 12.0172 12.7943C11.6023 12.7181 10.632 13.1478 11.3633 14.2219C9.89375 14.2219 7.16562 13.6329 5.87187 13.2378C4.89453 12.9468 2.91172 12.1637 2.31406 11.1865C1.32969 9.58558 3.93125 9.11433 3.93125 8.1926C3.93125 7.74906 3.56562 7.36096 3.14375 7.36096C2.53203 7.36789 0.5 8.89256 0.5 10.4311Z" fill="#144071"/>
<path fill-rule="evenodd" clip-rule="evenodd" d="M24.0687 8.14411C24.0687 8.90644 24.8 8.86486 25.5804 9.77273C27.0218 11.436 23.3375 12.8428 22.1984 13.224C21.3898 13.4943 20.5039 13.6953 19.632 13.8616C19.2523 13.9378 18.8304 13.9794 18.7109 14.5685C18.6687 14.7833 18.7461 15.012 18.8586 15.1506C19.2945 15.6843 19.9132 15.4486 20.7359 15.2546C21.7484 15.019 22.8593 14.7417 23.8086 14.3329C24.9406 13.8408 26.4664 13.0854 27.0921 11.9558C27.3242 11.54 27.4648 11.1311 27.5 10.7083V10.3202C27.4718 9.98757 27.3734 9.65492 27.2046 9.32226C26.9445 8.81635 26.6 8.50449 26.2484 8.18569C26.0937 8.04709 26.0234 7.98472 25.8406 7.85997C25.6296 7.7075 25.1656 7.36792 24.8632 7.36792C24.4625 7.36792 24.0687 7.74909 24.0687 8.14411Z" fill="#144071"/>
<path d="M8.9582 4.46415C9.38008 4.46415 9.73867 4.33941 10.041 4.10378C10.3434 3.86122 10.498 3.5147 10.498 3.0573C10.498 2.71079 10.3785 2.41279 10.1324 2.1633C9.89336 1.91381 9.56289 1.78906 9.15508 1.78906C8.87383 1.78906 8.64883 1.83064 8.46602 1.90688C8.2832 1.98311 8.14258 2.08706 8.03711 2.21181C7.93164 2.33655 7.8332 2.50288 7.73477 2.69693C7.64336 2.89791 7.55898 3.0781 7.47461 3.25828C7.43242 3.35531 7.34805 3.43154 7.22852 3.48005C7.10898 3.53549 6.97539 3.56322 6.8207 3.56322C6.63789 3.56322 6.46914 3.49391 6.32148 3.34145C6.1668 3.19591 6.08945 3.00186 6.08945 2.7593C6.08945 2.52367 6.15977 2.28111 6.30742 2.01776C6.45508 1.76134 6.65898 1.51185 6.94023 1.28315C7.21445 1.04752 7.55898 0.860403 7.9668 0.721797C8.37461 0.583191 8.83867 0.506958 9.34492 0.506958C9.78789 0.506958 10.1957 0.569331 10.5543 0.687146C10.9199 0.80496 11.2363 0.978218 11.5035 1.19999C11.7707 1.42176 11.9746 1.68511 12.1152 1.98311C12.2488 2.28111 12.3191 2.59991 12.3191 2.93949C12.3191 3.38996 12.2207 3.77805 12.0168 4.09685C11.8199 4.41564 11.5316 4.73443 11.166 5.03937C11.5176 5.22649 11.8199 5.44132 12.066 5.68388C12.3121 5.92644 12.4949 6.19673 12.6145 6.4878C12.741 6.7858 12.7973 7.09766 12.7973 7.43725C12.7973 7.84613 12.7129 8.24116 12.5441 8.62233C12.3754 9.00349 12.1293 9.34308 11.8059 9.64108C11.4824 9.93908 11.0957 10.1747 10.6527 10.341C10.2098 10.5074 9.71758 10.5975 9.17617 10.5975C8.62773 10.5975 8.13555 10.5004 7.70664 10.3064C7.2707 10.1123 6.91914 9.86978 6.63789 9.57871C6.35664 9.28763 6.1457 8.98963 6.00508 8.67777C5.85742 8.36591 5.78711 8.10949 5.78711 7.90851C5.78711 7.64516 5.87148 7.43725 6.04727 7.27785C6.21602 7.11845 6.42695 7.03529 6.68711 7.03529C6.81367 7.03529 6.94023 7.06994 7.05273 7.14618C7.17227 7.22241 7.24961 7.30557 7.28477 7.40953C7.52383 8.03325 7.77695 8.49758 8.05117 8.80252C8.32539 9.10745 8.70508 9.25991 9.19727 9.25991C9.47852 9.25991 9.75273 9.19061 10.0129 9.052C10.273 8.9134 10.491 8.71242 10.6598 8.44214C10.8285 8.17186 10.9199 7.85999 10.9199 7.50655C10.9199 6.97985 10.7723 6.57096 10.484 6.27296C10.1887 5.97496 9.78789 5.82249 9.26758 5.82249C9.17617 5.82249 9.03555 5.82942 8.8457 5.85021C8.65586 5.871 8.5293 5.87793 8.48008 5.87793C8.22695 5.87793 8.03711 5.81556 7.89648 5.69081C7.75586 5.56607 7.69258 5.39281 7.69258 5.17797C7.69258 4.96313 7.77695 4.78988 7.93867 4.6582C8.10039 4.52653 8.34648 4.45722 8.66992 4.45722H8.9582V4.46415ZM15.7996 0.541609H18.4504C19.1395 0.541609 19.7301 0.603982 20.2223 0.728727C20.7145 0.853472 21.1645 1.0891 21.5652 1.43562C22.6059 2.31576 23.1332 3.66024 23.1332 5.45518C23.1332 6.05119 23.084 6.59175 22.9785 7.07687C22.873 7.56892 22.7113 8.01246 22.4934 8.40056C22.2754 8.79558 21.9941 9.14903 21.6496 9.45396C21.3824 9.68959 21.0871 9.88364 20.7637 10.0222C20.4473 10.1678 20.1027 10.2717 19.7371 10.3272C19.3715 10.3826 18.9566 10.4173 18.4926 10.4173H15.8418C15.4762 10.4173 15.1949 10.3618 15.0051 10.2509C14.8152 10.1401 14.6957 9.98759 14.6395 9.78662C14.5832 9.58564 14.5551 9.32922 14.5551 9.01042V1.76827C14.5551 1.33859 14.6535 1.02673 14.8504 0.832682C15.0473 0.638634 15.3637 0.541609 15.7996 0.541609ZM16.5871 2.12865V8.83717H18.127C18.4645 8.83717 18.7316 8.83024 18.9215 8.80945C19.1113 8.78865 19.3082 8.74707 19.5191 8.67777C19.723 8.60154 19.8988 8.50451 20.0535 8.37284C20.7355 7.80455 21.073 6.82738 21.073 5.44825C21.073 4.47108 20.9254 3.7434 20.623 3.25828C20.3207 2.77316 19.9551 2.4613 19.5191 2.32962C19.0832 2.19795 18.5488 2.12865 17.9301 2.12865H16.5871Z" fill="#144071"/>
</g>
<defs>
<clipPath id="clip0_308_683">
<rect width="27" height="17" fill="white" transform="translate(0.5 0.5)"/>
</clipPath>
</defs>
</svg>
