<svg width="23" height="23" viewBox="0 0 23 23" fill="none" xmlns="http://www.w3.org/2000/svg">
<g clip-path="url(#clip0_14_27)">
<path d="M11.512 0.0480957C5.41196 0.0480957 0.511963 4.9481 0.511963 11.0481C0.511963 17.1481 5.41196 22.0481 11.512 22.0481C17.612 22.0481 22.512 17.1481 22.512 11.0481C22.512 4.9481 17.612 0.0480957 11.512 0.0480957ZM11.512 20.0481C6.61196 20.0481 2.51196 16.0481 2.51196 11.0481C2.61196 6.0481 6.51196 2.0481 11.512 2.0481C16.412 2.0481 20.512 6.0481 20.512 11.0481C20.512 16.0481 16.412 20.0481 11.512 20.0481Z" fill="white"/>
<path d="M12.512 12.0481V16.0481H10.512V12.0481H6.61197V10.0481H10.512V6.14807H12.512V10.0481H16.512V12.0481H12.512Z" fill="white"/>
</g>
<defs>
<clipPath id="clip0_14_27">
<rect width="22.1" height="22.1" fill="white" transform="translate(0.511963 0.0480957)"/>
</clipPath>
</defs>
</svg>
