<svg width="12" height="13" viewBox="0 0 12 13" fill="none" xmlns="http://www.w3.org/2000/svg">
<g clip-path="url(#clip0_96_386)">
<path d="M11.9 5.61758C11.9 5.51758 11.8 5.41758 11.7 5.31758L6.7 0.317578C6.3 -0.0824219 5.7 -0.0824219 5.3 0.317578C4.9 0.717578 4.9 1.31758 5.3 1.71758L8.6 5.01758H1C0.4 5.01758 0 5.51758 0 6.01758C0 6.51758 0.4 7.01758 1 7.01758H8.6L5.3 10.3176C4.9 10.7176 4.9 11.3176 5.3 11.7176C5.7 12.1176 6.3 12.1176 6.7 11.7176L11.7 6.71758C11.8 6.61758 11.9 6.51758 11.9 6.41758C12 6.11758 12 5.91758 11.9 5.61758Z" fill="#B1CFE9"/>
</g>
<defs>
<clipPath id="clip0_96_386">
<rect width="12" height="12" fill="white" transform="translate(0 0.0175781)"/>
</clipPath>
</defs>
</svg>
