<svg width="17" height="17" viewBox="0 0 17 17" fill="none" xmlns="http://www.w3.org/2000/svg">
<path fill-rule="evenodd" clip-rule="evenodd" d="M2.53697 3.70001H13.737C14.1788 3.70001 14.537 4.05819 14.537 4.50001V14.1C14.537 14.5419 14.1788 14.9 13.737 14.9H2.53697C2.09514 14.9 1.73697 14.5419 1.73697 14.1V4.50001C1.73697 4.05819 2.09514 3.70001 2.53697 3.70001ZM3.33697 6.90001V13.3H12.937V6.90001H3.33697Z" fill="#144071"/>
<path d="M5.33696 10.1C5.9997 10.1 6.53696 9.56275 6.53696 8.90001C6.53696 8.23727 5.9997 7.70001 5.33696 7.70001C4.67422 7.70001 4.13696 8.23727 4.13696 8.90001C4.13696 9.56275 4.67422 10.1 5.33696 10.1Z" fill="#144071"/>
<path d="M4.53698 5.29999C5.19972 5.29999 5.73698 4.76274 5.73698 4.09999C5.73698 3.43725 5.19972 2.89999 4.53698 2.89999C3.87423 2.89999 3.33698 3.43725 3.33698 4.09999C3.33698 4.76274 3.87423 5.29999 4.53698 5.29999Z" fill="#144071"/>
<path d="M11.737 5.29999C12.3997 5.29999 12.937 4.76274 12.937 4.09999C12.937 3.43725 12.3997 2.89999 11.737 2.89999C11.0742 2.89999 10.537 3.43725 10.537 4.09999C10.537 4.76274 11.0742 5.29999 11.737 5.29999Z" fill="#144071"/>
</svg>
