<svg width="17" height="20" viewBox="0 0 17 20" fill="none" xmlns="http://www.w3.org/2000/svg">
<path d="M15.0259 1.93701C12.7261 -0.362793 8.98098 -0.362793 6.68362 1.93701L0.311546 8.3042C0.270042 8.3457 0.248069 8.40185 0.248069 8.46045C0.248069 8.51904 0.270042 8.5752 0.311546 8.6167L1.21242 9.51758C1.2536 9.55858 1.30935 9.58159 1.36745 9.58159C1.42556 9.58159 1.4813 9.55858 1.52248 9.51758L7.89455 3.15039C8.68557 2.35937 9.73782 1.9248 10.856 1.9248C11.9741 1.9248 13.0264 2.35937 13.815 3.15039C14.606 3.94141 15.0405 4.99365 15.0405 6.10938C15.0405 7.22754 14.606 8.27734 13.815 9.06836L7.32082 15.5601L6.26858 16.6123C5.28469 17.5962 3.68557 17.5962 2.70168 16.6123C2.22561 16.1362 1.96438 15.5039 1.96438 14.8301C1.96438 14.1562 2.22561 13.5239 2.70168 13.0479L9.14455 6.60742C9.30813 6.44629 9.52297 6.35596 9.75246 6.35596H9.7549C9.9844 6.35596 10.1968 6.44629 10.3579 6.60742C10.5215 6.771 10.6094 6.98584 10.6094 7.21533C10.6094 7.44238 10.5191 7.65723 10.3579 7.81836L5.09182 13.0796C5.05032 13.1211 5.02834 13.1772 5.02834 13.2358C5.02834 13.2944 5.05032 13.3506 5.09182 13.3921L5.9927 14.293C6.03388 14.334 6.08962 14.357 6.14773 14.357C6.20584 14.357 6.26158 14.334 6.30276 14.293L11.5664 9.0293C12.0523 8.54346 12.3184 7.89893 12.3184 7.21289C12.3184 6.52686 12.0498 5.87988 11.5664 5.39648C10.563 4.39307 8.93215 4.39551 7.92873 5.39648L7.30373 6.02393L1.4883 11.8369C1.0936 12.2293 0.780732 12.6961 0.567833 13.2104C0.354935 13.7246 0.246246 14.276 0.248069 14.8325C0.248069 15.9629 0.689964 17.0249 1.4883 17.8232C2.31594 18.6484 3.39992 19.061 4.48391 19.061C5.56789 19.061 6.65188 18.6484 7.47707 17.8232L15.0259 10.2793C16.1367 9.16601 16.752 7.68408 16.752 6.10938C16.7544 4.53223 16.1392 3.05029 15.0259 1.93701Z" fill="white"/>
</svg>
