<svg width="72" height="14" viewBox="0 0 72 14" fill="none" xmlns="http://www.w3.org/2000/svg">
<g clip-path="url(#clip0_2_522)">
<path fill-rule="evenodd" clip-rule="evenodd" d="M47.4526 7.71078C47.4953 7.99078 47.5166 8.20616 47.5806 8.42155C48.0498 10.4246 49.6066 11.76 51.6327 11.9323C53.4242 12.0831 54.8318 11.3939 55.8768 9.9077C56.3886 9.19693 57.2204 9.0677 57.8815 9.64924C58.2654 9.97232 58.3081 10.4031 58.0095 10.8123C57.8389 11.0277 57.6896 11.2431 57.519 11.48C56.8365 12.4277 55.9408 13.0739 54.8318 13.4615C53.0403 14.0862 51.2488 14.1723 49.4787 13.5046C47.09 12.6215 45.6825 10.8554 45.2772 8.33539C45.0426 6.78463 45.1919 5.23386 45.8957 3.83386C46.9194 1.83078 48.519 0.603088 50.737 0.236934C52.2085 1.0848e-05 53.6588 0.15078 55.0237 0.818472C56.9645 1.74463 58.1374 3.31693 58.5853 5.40616C58.7133 5.9877 58.7559 6.56924 58.7986 7.15078C58.8412 7.51693 58.6706 7.6677 58.3081 7.68924C58.1374 7.68924 57.9882 7.68924 57.8175 7.68924C54.5119 7.68924 51.2062 7.68924 47.9218 7.68924C47.7725 7.71078 47.6659 7.71078 47.4526 7.71078ZM56.4739 5.51386C56.1967 3.64001 53.9573 2.00309 51.8886 2.13232C49.7346 2.26155 47.6019 3.92001 47.5166 5.51386C50.481 5.51386 53.4881 5.51386 56.4739 5.51386Z" fill="white" fill-opacity="0.5"/>
<path fill-rule="evenodd" clip-rule="evenodd" d="M30.519 7.64614C30.5403 7.83999 30.5616 7.96922 30.5829 8.11999C30.9882 10.3385 32.7796 11.8677 34.9976 11.9108C36.6825 11.9323 37.9834 11.2431 38.9645 9.8646C39.4763 9.1323 40.3934 9.04614 41.0332 9.6923C41.3318 10.0154 41.3957 10.4031 41.0972 10.7908C40.9692 10.9846 40.8412 11.1569 40.6919 11.3077C39.9668 12.3846 38.9645 13.0738 37.7488 13.4831C35.9573 14.0861 34.1659 14.1292 32.4384 13.44C29.9645 12.4708 28.5782 10.5538 28.2796 7.88307C28.1303 6.59076 28.2583 5.34153 28.7915 4.15691C29.8365 1.91691 31.5213 0.538449 33.9739 0.215372C35.2749 0.0430641 36.5758 0.150756 37.7701 0.646141C39.9455 1.55076 41.2038 3.2523 41.6943 5.55691C41.7796 6.07383 41.8436 6.63383 41.8649 7.15076C41.8863 7.58153 41.8009 7.66768 41.3531 7.66768C40.5853 7.66768 39.7749 7.66768 38.9858 7.66768C36.3412 7.66768 33.6967 7.66768 31.0948 7.66768C30.9028 7.64614 30.7322 7.64614 30.519 7.64614ZM39.5829 5.44922C39.3057 3.59691 37.1303 2.0246 34.9976 2.06768C32.9289 2.11076 30.7749 3.79076 30.6043 5.44922C33.5901 5.44922 36.5545 5.44922 39.5829 5.44922Z" fill="white" fill-opacity="0.5"/>
<path fill-rule="evenodd" clip-rule="evenodd" d="M67.628 8.63692C67.7986 8.78768 67.8839 8.87384 67.9905 8.95999C69.1422 9.95076 70.2939 10.9415 71.4242 11.9323C71.4882 11.9969 71.5948 12.0831 71.6588 12.1477C72.0853 12.5785 72.128 13.2031 71.7228 13.6338C71.3389 14.0646 70.7417 14.1292 70.2939 13.7631C69.4834 13.0954 68.7157 12.4061 67.9265 11.7385C66.7962 10.7692 65.6872 9.79999 64.5569 8.83076C64.4716 8.74461 64.3436 8.65845 64.173 8.52922C64.173 8.76615 64.1517 8.91691 64.1517 9.06768C64.1517 11.8031 64.1517 9.75692 64.1517 12.4923C64.1517 12.6215 64.1517 12.7508 64.1517 12.88C64.109 13.4831 63.6611 13.9138 63.064 13.8708C62.4882 13.8492 62.1043 13.4185 62.0829 12.8154C62.0829 12.6861 62.0829 12.5569 62.0829 12.4277C62.0829 7.02153 62.0829 6.39692 62.0829 0.990761C62.0829 0.818453 62.0829 0.667684 62.0829 0.495376C62.0829 0.107684 62.1256 0.0430686 62.4882 0.0430686C62.9787 0.0215301 63.4692 0.0215301 63.9597 0.0215301C65.1327 0.0215301 66.3483 0.0646071 67.5213 -8.33394e-06C69.5048 -0.0861622 71.7228 1.52922 71.936 3.87692C72.128 5.98768 70.6991 7.99076 68.5664 8.42153C68.2891 8.48615 67.9905 8.5723 67.628 8.63692ZM64.0237 6.97845C64.1517 6.99999 64.237 6.99999 64.301 6.99999C65.282 6.99999 66.2844 6.99999 67.2654 6.99999C67.5427 6.99999 67.8412 6.97845 68.1185 6.87076C69.0356 6.59076 69.7607 6.03076 69.9953 5.03999C70.4005 3.33845 69.1422 1.78768 67.4147 1.78768C66.391 1.78768 65.3886 1.78768 64.3436 1.78768C64.2156 1.78768 64.109 1.80922 63.981 1.80922C64.0237 3.5323 64.0237 5.23384 64.0237 6.97845Z" fill="white" fill-opacity="0.5"/>
<path fill-rule="evenodd" clip-rule="evenodd" d="M22.8412 7.66768C20.8791 7.66768 18.981 7.66768 17.0403 7.66768C17.0403 7.83999 17.019 7.99076 17.019 8.14153C17.019 9.64922 17.019 11.1354 17.019 12.6431C17.019 12.8369 17.019 13.0308 16.9763 13.1815C16.827 13.6338 16.3578 13.9138 15.91 13.8923C15.4194 13.8492 15.0142 13.4615 14.9502 12.9661C14.9289 12.8369 14.9502 12.7292 14.9502 12.6C14.9502 7.23691 14.9289 6.59076 14.9289 1.24922C14.9289 1.03384 14.9502 0.818453 15.0142 0.624607C15.1848 0.1723 15.654 -0.0861619 16.1446 -0.0215465C16.5924 0.0430689 16.9763 0.430761 17.019 0.904607C17.0403 1.05538 17.019 1.18461 17.019 1.33538C17.019 4.0923 17.0403 2.1323 17.0403 4.88922C17.0403 5.06153 17.0616 5.2123 17.0616 5.36307C17.4242 5.44922 22.4573 5.44922 22.8412 5.36307C22.8412 5.23384 22.8626 5.10461 22.8626 4.95384C22.8626 3.74768 22.8626 2.51999 22.8626 1.31384C22.8626 1.18461 22.8626 1.07691 22.8626 0.947684C22.9052 0.409223 23.3104 -8.03545e-06 23.8436 -0.0215465C24.3768 -0.043085 24.8673 0.366146 24.9313 0.904607C24.9526 1.03384 24.9313 1.14153 24.9313 1.27076C24.9313 5.03999 24.9313 8.78768 24.9313 12.5569C24.9313 12.6861 24.9313 12.7938 24.9313 12.9231C24.8673 13.4615 24.3981 13.8923 23.8649 13.8708C23.3318 13.8492 22.9052 13.4185 22.8412 12.88C22.8412 12.7508 22.8412 12.6431 22.8412 12.5138C22.8412 11.0708 22.8412 9.58461 22.8412 8.14153C22.8412 8.0123 22.8412 7.86153 22.8412 7.66768Z" fill="white" fill-opacity="0.5"/>
<path fill-rule="evenodd" clip-rule="evenodd" d="M5.86493 13.9785C4.47867 13.9569 3.17772 13.6554 1.98341 12.9231C1.47156 12.6215 1.00237 12.2338 0.618483 11.7815C0.42654 11.5446 0.191943 11.3077 0.106635 11.0061C-0.0213271 10.6185 -0.0426541 10.1877 0.319905 9.84307C0.725118 9.45538 1.27962 9.30461 1.83412 9.67076C2.3673 10.0585 2.62322 10.5538 3.07109 11.0061C3.7109 11.6523 4.54265 11.9969 5.43839 12.1046C6.27014 12.1908 7.08057 12.1692 7.89099 11.8892C8.2109 11.76 8.55213 11.6092 8.82938 11.3938C9.34123 10.8123 9.49052 9.99384 8.87204 9.43384C8.57346 9.17538 8.18957 8.98153 7.80569 8.80922C6.8673 8.39999 5.88626 8.11999 4.90521 7.86153C4.09479 7.66768 3.32701 7.40922 2.51659 7.1723C2.21801 7.08615 1.91943 6.91384 1.64218 6.76307C0.895734 6.35384 0.469194 5.70768 0.341232 4.88922C0.106635 3.18769 0.725118 1.65845 2.19668 0.904608C4.5 -0.23693 6.88862 -0.129238 9.19194 1.18461C9.61848 1.42153 10.0237 1.78769 10.3863 2.11076C10.6635 2.34769 10.8768 2.6923 10.9834 3.05845C11.09 3.51076 10.8768 3.98461 10.3223 4.11384C9.85308 4.22153 9.42654 4.07076 9.08531 3.70461C9.02133 3.63999 8.95735 3.55384 8.91469 3.48922C8.38152 2.67076 7.59242 2.21845 6.65403 2.04615C5.71564 1.87384 4.77725 1.89538 3.88152 2.26153C3.56161 2.39076 3.22038 2.56307 2.96445 2.79999C2.58057 3.31692 2.43128 4.00615 2.94313 4.6523C3.34834 5.03999 3.81753 5.25538 4.32938 5.36307C5.45971 5.64307 6.61137 5.94461 7.74171 6.22461C8.46682 6.41845 9.17062 6.65538 9.83175 7.04307C10.6848 7.49538 11.3033 8.16307 11.5166 9.1323C11.7725 10.3169 11.5166 11.4369 10.5995 12.2985C9.5545 13.2461 8.36019 13.7631 6.97393 13.9138C6.59005 13.9569 6.20616 13.9569 5.86493 13.9785Z" fill="white" fill-opacity="0.5"/>
</g>
<defs>
<clipPath id="clip0_2_522">
<rect width="72" height="14" fill="white"/>
</clipPath>
</defs>
</svg>
