<svg width="25" height="24" viewBox="0 0 25 24" fill="none" xmlns="http://www.w3.org/2000/svg">
<path d="M12.8921 15.5402L18.5421 9.88023C18.6358 9.78726 18.7102 9.67666 18.761 9.5548C18.8118 9.43294 18.8379 9.30224 18.8379 9.17023C18.8379 9.03821 18.8118 8.90751 18.761 8.78565C18.7102 8.66379 18.6358 8.55319 18.5421 8.46023C18.3547 8.27398 18.1013 8.16943 17.8371 8.16943C17.5729 8.16943 17.3195 8.27398 17.1321 8.46023L12.1321 13.4102L7.18209 8.46023C6.99473 8.27398 6.74128 8.16943 6.47709 8.16943C6.21291 8.16943 5.95946 8.27398 5.77209 8.46023C5.6776 8.55284 5.60243 8.66329 5.55094 8.78516C5.49944 8.90704 5.47264 9.03792 5.47209 9.17023C5.47264 9.30253 5.49944 9.43342 5.55094 9.55529C5.60243 9.67717 5.6776 9.78761 5.77209 9.88023L11.4221 15.5402C11.5157 15.6417 11.6294 15.7227 11.7559 15.7781C11.8824 15.8336 12.019 15.8622 12.1571 15.8622C12.2952 15.8622 12.4318 15.8336 12.5583 15.7781C12.6848 15.7227 12.7985 15.6417 12.8921 15.5402Z" fill="white"/>
</svg>
