<svg width="32" height="44" viewBox="0 0 32 44" fill="none" xmlns="http://www.w3.org/2000/svg">
<g clip-path="url(#clip0_202_635)">
<path d="M6.12255 5.67361H2.77941C1.51307 5.67361 0.5 6.69016 0.5 7.96084V41.3036C0.5 42.5743 1.51307 43.5909 2.77941 43.5909H29.2712C30.5376 43.5909 31.5507 42.5743 31.5507 41.3036V7.91002C31.5507 6.63933 30.5376 5.62278 29.2712 5.62278H25.9281C25.8775 4.3521 24.915 3.38637 23.6993 3.38637H21.5212C21.2173 1.7599 19.799 0.540039 18.0768 0.540039H14.4297C12.7075 0.540039 11.2892 1.7599 11.0359 3.38637H8.35131C7.13562 3.38637 6.1732 4.40292 6.12255 5.67361ZM25.7761 9.12987H27.3971V38.559H4.55229V9.12987H6.22386C6.52778 10.0956 7.33824 10.7564 8.35131 10.7564H23.6487C24.6618 10.7564 25.5229 10.0956 25.7761 9.12987ZM29.8791 7.91002V41.2528C29.8791 41.6086 29.5752 41.9136 29.2206 41.9136H2.77941C2.42484 41.9136 2.12092 41.6086 2.12092 41.2528V7.91002C2.12092 7.55422 2.42484 7.24926 2.77941 7.24926H6.12255V7.45257H3.74183C3.28595 7.45257 2.93137 7.80836 2.93137 8.26581V39.3214C2.93137 39.7788 3.28595 40.1346 3.74183 40.1346H28.2582C28.7141 40.1346 29.0686 39.7788 29.0686 39.3214V8.31664C29.0686 7.85919 28.7141 7.5034 28.2582 7.5034H25.9281V7.30009H29.2712C29.6258 7.30009 29.8791 7.55422 29.8791 7.91002ZM7.74346 5.77526C7.74346 5.36864 7.99673 5.01285 8.35131 5.01285H11.7958C12.2516 5.01285 12.6062 4.65706 12.6062 4.19961V3.9963C12.6062 2.97976 13.4167 2.16652 14.4297 2.16652H18.0768C19.0899 2.16652 19.9003 2.97976 19.9003 3.9963V4.19961C19.9003 4.65706 20.2549 5.01285 20.7108 5.01285H23.6487C24.0033 5.01285 24.2565 5.36864 24.2565 5.77526V6.43602V8.36746C24.2565 8.77408 24.0033 9.12987 23.6487 9.12987H8.35131C7.99673 9.12987 7.74346 8.77408 7.74346 8.36746V6.43602V5.77526Z" fill="#144071"/>
<path d="M15.8485 7.09678C17.1655 7.09678 18.2292 6.0294 18.2292 4.70789C18.2292 3.38638 17.1655 2.319 15.8485 2.319C14.5315 2.319 13.4678 3.38638 13.4678 4.70789C13.4678 6.0294 14.5315 7.09678 15.8485 7.09678ZM15.8485 3.94548C16.2537 3.94548 16.6083 4.30127 16.6083 4.70789C16.6083 5.11451 16.2537 5.4703 15.8485 5.4703C15.4433 5.4703 15.0887 5.11451 15.0887 4.70789C15.0887 4.30127 15.4433 3.94548 15.8485 3.94548Z" fill="#144071"/>
<path d="M5.86914 15.2292C5.86914 15.6866 6.22372 16.0424 6.6796 16.0424H24.9655C25.4214 16.0424 25.776 15.6866 25.776 15.2292C25.776 14.7717 25.4214 14.4159 24.9655 14.4159H6.6796C6.22372 14.4159 5.86914 14.8225 5.86914 15.2292Z" fill="#144071"/>
<path d="M17.6208 20.0578H6.6796C6.22372 20.0578 5.86914 20.4136 5.86914 20.871C5.86914 21.3285 6.22372 21.6842 6.6796 21.6842H17.6714C18.1273 21.6842 18.4819 21.3285 18.4819 20.871C18.4312 20.4644 18.0767 20.0578 17.6208 20.0578Z" fill="#144071"/>
<path d="M17.6208 26.2587H6.6796C6.22372 26.2587 5.86914 26.6145 5.86914 27.072C5.86914 27.5294 6.22372 27.8852 6.6796 27.8852H17.6714C18.1273 27.8852 18.4819 27.5294 18.4819 27.072C18.4819 26.6145 18.0767 26.2587 17.6208 26.2587Z" fill="#144071"/>
<path d="M17.6208 32.4597H6.6796C6.22372 32.4597 5.86914 32.8154 5.86914 33.2729C5.86914 33.7303 6.22372 34.0861 6.6796 34.0861H17.6714C18.1273 34.0861 18.4819 33.7303 18.4819 33.2729C18.4312 32.8154 18.0767 32.4597 17.6208 32.4597Z" fill="#144071"/>
<path d="M23.6994 18.2788L21.6226 20.4136L21.0654 19.6512C20.8122 19.2954 20.3056 19.1937 19.9511 19.4987C19.5965 19.7528 19.4952 20.2611 19.7991 20.6169L20.9135 22.1925C21.0654 22.3958 21.2681 22.4975 21.5213 22.4975H21.572C21.7746 22.4975 22.0279 22.3958 22.1798 22.2434L24.9151 19.397C25.219 19.0921 25.219 18.5329 24.9151 18.228C24.5099 17.923 24.0033 17.923 23.6994 18.2788Z" fill="#144071"/>
<path d="M23.6994 24.7339L21.6226 26.8686L21.0654 26.1062C20.8122 25.7504 20.3056 25.6488 19.9511 25.9538C19.5965 26.2079 19.4952 26.7162 19.7991 27.072L20.9135 28.6476C21.0654 28.8509 21.2681 28.9526 21.5213 28.9526H21.572C21.7746 28.9526 22.0279 28.8509 22.1798 28.6984L24.9151 25.8521C25.219 25.5471 25.219 24.988 24.9151 24.6831C24.5099 24.3781 24.0033 24.3781 23.6994 24.7339Z" fill="#144071"/>
<path d="M23.6994 31.189L21.6226 33.3237L21.0654 32.5613C20.8122 32.2055 20.3056 32.1039 19.9511 32.4088C19.5965 32.663 19.4952 33.1712 19.7991 33.527L20.9135 35.1027C21.0654 35.306 21.2681 35.4077 21.5213 35.4077H21.572C21.7746 35.4077 22.0279 35.306 22.1798 35.1535L24.9151 32.3072C25.219 32.0022 25.219 31.4431 24.9151 31.1381C24.5099 30.8332 24.0033 30.884 23.6994 31.189Z" fill="#144071"/>
</g>
<defs>
<clipPath id="clip0_202_635">
<rect width="31" height="43" fill="white" transform="translate(0.5 0.540039)"/>
</clipPath>
</defs>
</svg>
