<svg width="42" height="41" viewBox="0 0 42 41" fill="none" xmlns="http://www.w3.org/2000/svg">
<g clip-path="url(#clip0_202_633)">
<path d="M40.7029 16.7646H35.6215C35.5717 16.715 35.5219 16.6653 35.4222 16.6157L23.6154 10.9582C23.7649 10.6108 23.8645 10.2137 23.8645 9.76709C23.8645 8.32788 22.8682 7.08719 21.5231 6.73979V5.25096L24.4623 1.28073C24.6616 1.03259 24.6616 0.734828 24.5121 0.437061C24.4125 0.188922 24.1136 0.0400391 23.8147 0.0400391H17.6373C17.3384 0.0400391 17.0395 0.188922 16.9399 0.486689C16.7904 0.734828 16.8402 1.08222 16.9897 1.33036L19.9289 5.30059V7.2857C19.9289 7.33532 19.9289 7.33532 19.9289 7.38495V7.43458C19.9289 7.88123 20.2776 8.22863 20.726 8.22863C21.5729 8.22863 22.2704 8.92341 22.2704 9.76709C22.2704 10.6108 21.5729 11.3055 20.726 11.3055C20.4271 11.3055 20.1282 11.2063 19.8791 11.0574C19.8293 11.0574 19.8293 11.0078 19.7795 10.9582C19.7296 10.9085 19.6798 10.8589 19.63 10.8093C19.5802 10.71 19.4806 10.6604 19.4307 10.5611C19.2315 10.1641 18.7333 10.0649 18.3347 10.2634C18.0358 10.4619 17.8864 10.8093 17.986 11.1567L6.57776 16.6157C6.52795 16.6653 6.42831 16.715 6.37849 16.7646H1.29708C0.848724 16.7646 0.5 17.112 0.5 17.5586V19.7919C0.5 20.2386 0.848724 20.5859 1.29708 20.5859H2.24362V36.2683H1.29708C0.848724 36.2683 0.5 36.6157 0.5 37.0624V39.246C0.5 39.6926 0.848724 40.04 1.29708 40.04H40.7029C41.1513 40.04 41.5 39.6926 41.5 39.246V37.0127C41.5 36.5661 41.1513 36.2187 40.7029 36.2187H39.7564V20.5363H40.7029C41.1513 20.5363 41.5 20.1889 41.5 19.7423V17.509C41.5 17.112 41.1513 16.7646 40.7029 16.7646ZM19.2315 1.62813H22.2704L20.7758 3.66287L19.2315 1.62813ZM39.9058 38.452H2.09417V37.8068H39.9058V38.452ZM3.83779 20.5363H5.68104V36.2187H3.83779V20.5363ZM34.4757 36.2187H32.2339V20.5363H34.4757V36.2187ZM7.5243 20.5363H9.7661V36.2187H7.5243V20.5363ZM30.3906 36.2187H28.1488V20.5363H30.3906V36.2187ZM26.2558 36.2187H24.014V20.5363H26.2558V36.2187ZM22.1209 36.2187H19.8791V20.5363H22.1209V36.2187ZM18.0358 36.2187H15.794V20.5363H18.0358V36.2187ZM13.901 36.2187H11.6592V20.5363H13.901V36.2187ZM38.212 36.2187H36.3688V20.5363H38.212V36.2187ZM39.9058 18.9482H39.1087H2.89125H2.09417V18.3031H39.9058V18.9482ZM19.0322 12.3974C19.5304 12.7448 20.1282 12.8936 20.726 12.8936C21.4234 12.8936 22.1209 12.6455 22.6191 12.2485L32.0346 16.7646H9.96537L19.0322 12.3974Z" fill="#144071"/>
</g>
<defs>
<clipPath id="clip0_202_633">
<rect width="41" height="40" fill="white" transform="translate(0.5 0.0400391)"/>
</clipPath>
</defs>
</svg>
