<svg width="44" height="44" viewBox="0 0 44 44" fill="none" xmlns="http://www.w3.org/2000/svg">
<path d="M24.8863 16.7674H20.1085C19.7917 16.7674 19.4879 16.8932 19.2639 17.1172C19.0399 17.3412 18.9141 17.645 18.9141 17.9618V25.1285C18.9141 25.4453 19.0399 25.7491 19.2639 25.9731C19.4879 26.1971 19.7917 26.3229 20.1085 26.3229H24.8863C25.2031 26.3229 25.5069 26.1971 25.7309 25.9731C25.9549 25.7491 26.0807 25.4453 26.0807 25.1285V17.9618C26.0807 17.645 25.9549 17.3412 25.7309 17.1172C25.5069 16.8932 25.2031 16.7674 24.8863 16.7674ZM24.4085 24.6507H20.5863V18.4396H24.4085V24.6507Z" fill="#144071"/>
<path d="M41.2626 14.8324L36.3773 9.94711C36.1548 9.72644 35.8545 9.60204 35.5412 9.60072H29.569V7.27156C29.5852 6.64394 29.3536 6.03517 28.9244 5.57694C28.4953 5.11871 27.903 4.84785 27.2756 4.82294H17.529C17.2224 4.83501 16.9214 4.90846 16.6437 5.03895C16.366 5.16945 16.1174 5.35433 15.9124 5.58265C15.7075 5.81097 15.5505 6.07809 15.4506 6.36819C15.3508 6.65829 15.3102 6.96547 15.3312 7.27156V9.60072H9.45452C9.29732 9.59981 9.14149 9.62994 8.99596 9.68938C8.85043 9.74883 8.71807 9.83641 8.60646 9.94711L3.73313 14.8324C3.62242 14.944 3.53484 15.0764 3.4754 15.2219C3.41596 15.3674 3.38583 15.5232 3.38674 15.6804V33.4896C3.38674 34.1232 3.63842 34.7308 4.08643 35.1788C4.53443 35.6268 5.14205 35.8785 5.77563 35.8785H39.2201C39.8536 35.8785 40.4613 35.6268 40.9093 35.1788C41.3573 34.7308 41.609 34.1232 41.609 33.4896V15.6685C41.6076 15.3551 41.4832 15.0549 41.2626 14.8324ZM17.7201 7.21183H27.2756V9.60072H17.7201V7.21183ZM39.2201 20.3507H27.2756V22.656H39.2201V33.4896H5.77563V22.656H17.7201V20.3507H5.77563V16.1702L9.95618 11.9896H35.0395L39.2201 16.1702V20.3507Z" fill="#144071"/>
</svg>
