<svg width="44" height="38" viewBox="0 0 44 38" fill="none" xmlns="http://www.w3.org/2000/svg">
<g clip-path="url(#clip0_202_645)">
<path d="M38.414 15.9822V13.1282C38.414 13.0772 38.414 13.0772 38.414 13.0263C38.0544 9.61166 36.2563 6.45188 33.2766 4.1585C30.2969 1.81414 26.2897 0.540039 22.0257 0.540039C17.7103 0.540039 14.0114 1.71222 11.1344 4.05657C8.46296 6.19706 6.56213 9.25492 5.6374 12.9243C5.6374 12.9753 5.6374 13.0772 5.6374 13.1282V15.9822C2.70908 16.237 0.5 18.1736 0.5 20.467V22.9643C0.5 25.3086 2.81183 27.2453 5.74014 27.5001C5.94564 29.2329 6.87037 30.7618 8.25747 31.7811V35.9602C8.25747 36.4188 8.61709 36.7756 9.07945 36.7756C9.54182 36.7756 9.90143 36.4188 9.90143 35.9602V32.6984C10.6207 33.0042 11.4427 33.1571 12.2646 33.1571H13.3435C14.2682 34.3293 15.3984 35.2976 16.6314 36.0621C18.2754 37.0304 20.1762 37.54 22.1798 37.54C24.132 37.54 25.9815 37.0304 27.6255 36.113C31.1703 34.1254 33.5848 30.2012 33.5848 25.7163V19.142V19.091C33.5848 19.091 33.5848 19.091 33.5848 19.04V18.9891C33.5848 18.9891 33.5848 18.9891 33.5848 18.9381V18.8871C33.5848 18.8871 33.5848 18.8871 33.5848 18.8362C33.5848 18.8362 33.5848 18.8362 33.5848 18.7852V18.7343C33.5848 18.7343 33.5848 18.7343 33.5848 18.6833V18.6323C33.5848 18.6323 33.5848 18.5814 33.5335 18.5814C33.5335 18.5814 33.5335 18.5814 33.5335 18.5304C33.5335 18.5304 33.5335 18.5304 33.4821 18.4794C33.4821 18.4794 33.4821 18.4794 33.4307 18.4285C33.4307 18.4285 33.4307 18.4285 33.4307 18.3775C33.4307 18.3775 33.4307 18.3775 33.3793 18.3265C33.3793 18.3265 33.328 18.3265 33.328 18.2756C33.328 18.2756 33.328 18.2756 33.2766 18.2756C33.2766 18.2756 33.2766 18.2756 33.2252 18.2756C33.2252 18.2756 33.2252 18.2756 33.1738 18.2756H33.1225C33.1225 18.2756 33.1225 18.2756 33.0711 18.2756H33.0197C33.0197 18.2756 33.0197 18.2756 32.9683 18.2756H32.917C32.095 18.1227 30.9648 17.715 29.7318 17.2053C26.4952 15.8293 22.6936 13.6888 22.6422 13.6378C22.3339 13.4849 21.9743 13.4849 21.7174 13.6888C19.3029 15.5235 16.7855 16.5938 14.8847 17.2563C13.0866 17.8679 11.8023 18.0717 11.8023 18.0717C11.6481 18.0717 11.494 18.1736 11.3913 18.2756C11.0317 18.3775 10.7748 18.6833 10.7748 19.091V25.6144C10.7748 27.7549 11.2885 29.7425 12.2646 31.4243H12.2133C11.3399 31.4243 10.5693 31.2205 9.85006 30.8128V17.3582V17.0015C9.85006 10.8858 15.3984 5.89128 22.1798 5.89128C28.9612 5.89128 34.5096 10.8858 34.5096 17.0015V17.2563V36.164C34.5096 36.6227 34.8692 36.9794 35.3315 36.9794C35.7939 36.9794 36.1535 36.6227 36.1535 36.164V17.2053V16.9505C36.1535 9.91745 29.8859 4.20946 22.1798 4.20946C14.4737 4.20946 8.20609 9.91745 8.20609 16.9505V17.3582V29.4367C7.64098 28.6213 7.28136 27.653 7.28136 26.6337C7.28136 26.5318 7.22999 26.3789 7.17861 26.277V17.5111C7.17861 17.4601 7.17861 17.4092 7.17861 17.3582V13.2301C8.0006 9.96841 9.69594 7.21635 12.0591 5.33067C14.6792 3.24114 17.9671 2.17089 21.9229 2.17089C25.8274 2.17089 29.4749 3.34307 32.1977 5.48357C34.7664 7.52213 36.359 10.2232 36.7186 13.1792V17.2053C36.7186 17.2563 36.7186 17.2563 36.7186 17.3073V26.6847C36.7186 27.1433 37.0783 27.5001 37.5406 27.5001H37.592C37.6434 27.5001 37.6434 27.5001 37.6947 27.5001C40.8799 27.5001 43.5 25.4615 43.5 22.9643V20.467C43.5 18.1736 41.2909 16.237 38.414 15.9822ZM12.4188 25.6654V19.7026C12.9325 19.6006 13.9086 19.3968 15.1416 18.9891C16.2718 18.6323 17.7103 18.0717 19.1487 17.3073C20.1762 16.7976 21.2551 16.1351 22.3339 15.3706C23.0018 15.7274 24.3889 16.4918 25.9301 17.2563C27.2145 17.9188 28.6529 18.5814 29.9887 19.091C30.7079 19.3458 31.3757 19.6006 31.9409 19.7535V25.6654C31.9409 31.3224 27.5741 35.9092 22.1798 35.9092C19.6111 35.9092 17.2479 34.8389 15.5012 33.1571H16.7342C17.0938 33.7687 17.7617 34.2274 18.5323 34.2274H20.8441C21.9743 34.2274 22.899 33.31 22.899 32.1888C22.899 31.0676 21.9743 30.1502 20.8441 30.1502H18.5323C17.6589 30.1502 16.8883 30.7108 16.6314 31.4753H14.1655C13.0866 29.8444 12.4188 27.8568 12.4188 25.6654ZM41.856 22.9643C41.856 24.3913 40.3662 25.5635 38.414 25.8183V17.613C40.3662 17.8679 41.856 19.04 41.856 20.467V22.9643ZM2.14397 20.467C2.14397 19.04 3.63381 17.8679 5.58602 17.613V25.8183C3.63381 25.5635 2.14397 24.3913 2.14397 22.9643V20.467Z" fill="#144071"/>
</g>
<defs>
<clipPath id="clip0_202_645">
<rect width="43" height="37" fill="white" transform="translate(0.5 0.540039)"/>
</clipPath>
</defs>
</svg>
