<svg width="41" height="42" viewBox="0 0 41 42" fill="none" xmlns="http://www.w3.org/2000/svg">
<path d="M17.4893 40.1999C18.0338 40.1999 18.4742 39.7594 18.4742 39.2149C18.4742 38.6704 18.0338 38.2299 17.4893 38.2299C9.44942 38.2299 2.91504 31.6956 2.91504 23.6557V9.92231L17.4893 3.84438L32.0635 9.92231V15.6479C32.0635 16.1924 32.5039 16.6329 33.0484 16.6329C33.593 16.6329 34.0334 16.1924 34.0334 15.6479V9.27368C34.0334 8.8813 33.7932 8.52095 33.4328 8.3688L17.8656 1.87446C17.6254 1.77036 17.3531 1.77036 17.1129 1.87446L1.55371 8.36079C1.18535 8.51294 0.953125 8.87329 0.953125 9.26567V23.6557C0.953125 32.7766 8.36836 40.1999 17.4893 40.1999Z" fill="#144071"/>
<path d="M28.2752 23.4075C25.4564 23.4075 23.1582 25.6977 23.1582 28.5245C23.1582 31.3512 25.4484 33.6415 28.2752 33.6415C31.0939 33.6415 33.3922 31.3512 33.3922 28.5245C33.3922 25.6977 31.0939 23.4075 28.2752 23.4075ZM28.2752 31.6715C26.5375 31.6715 25.1201 30.2541 25.1201 28.5165C25.1201 26.7788 26.5375 25.3614 28.2752 25.3614C30.0129 25.3614 31.4303 26.7788 31.4303 28.5165C31.4303 30.2541 30.0129 31.6715 28.2752 31.6715Z" fill="#144071"/>
<path d="M32.9279 20.1082C32.2953 19.7559 31.6307 19.4836 30.942 19.2834V18.4426C30.942 17.5057 30.1812 16.753 29.2523 16.753H27.3064C26.3695 16.753 25.6168 17.5137 25.6168 18.4426V19.2834C24.9281 19.4836 24.2635 19.7559 23.6309 20.1082L23.0383 19.5157C22.718 19.1954 22.2936 19.0192 21.8451 19.0192C21.3967 19.0192 20.9643 19.1954 20.652 19.5157L19.2666 20.885C18.9463 21.2053 18.7701 21.6297 18.7701 22.0782C18.7701 22.5346 18.9463 22.959 19.2666 23.2713L19.8592 23.8639C19.5068 24.4965 19.2346 25.1612 19.0344 25.8499H18.1936C17.2566 25.8499 16.5039 26.6106 16.5039 27.5395V29.4774C16.5039 30.4143 17.2646 31.167 18.1936 31.167H19.0344C19.2346 31.8557 19.5068 32.5204 19.8592 33.153L19.2666 33.7456C18.61 34.4022 18.61 35.4832 19.2666 36.1399L20.6359 37.5092C20.9563 37.8295 21.3807 38.0057 21.8291 38.0057C22.2775 38.0057 22.71 37.8295 23.0223 37.5092L23.6148 36.9166C24.2475 37.269 24.9121 37.5413 25.6008 37.7415V38.5823C25.6008 39.5192 26.3615 40.2719 27.2904 40.2719H29.2283C30.1652 40.2719 30.918 39.5112 30.918 38.5823V37.7415C31.6066 37.5413 32.2713 37.269 32.9039 36.9166L33.4965 37.5092C33.8168 37.8295 34.2412 38.0057 34.6896 38.0057C35.1381 38.0057 35.5705 37.8295 35.8828 37.5092L37.2521 36.1399C37.5725 35.8196 37.7486 35.3952 37.7486 34.9387C37.7486 34.4903 37.5725 34.0579 37.2521 33.7456L36.6596 33.153C37.0119 32.5204 37.2842 31.8557 37.4844 31.167H38.3572C39.2941 31.167 40.0469 30.4063 40.0469 29.4774V27.5395C40.0469 26.6026 39.2861 25.8499 38.3572 25.8499H37.5164C37.3162 25.1612 37.0439 24.4965 36.6916 23.8639L37.2842 23.2713C37.6045 22.951 37.7807 22.5266 37.7807 22.0702C37.7807 21.6217 37.6045 21.1893 37.2842 20.877L35.9148 19.5077C35.5945 19.1874 35.1701 19.0112 34.7217 19.0112C34.2732 19.0112 33.8408 19.1874 33.5205 19.5077L32.9279 20.1082ZM34.7217 21.0932L35.7146 22.0862L34.7617 23.0391C34.4334 23.3674 34.3773 23.8879 34.6416 24.2803C35.2021 25.1211 35.5865 26.05 35.7867 27.043C35.8748 27.4995 36.2832 27.8358 36.7477 27.8358H38.093V29.2372H36.7477C36.2832 29.2372 35.8748 29.5655 35.7867 30.0299C35.5945 31.0229 35.2102 31.9518 34.6416 32.7926C34.3773 33.185 34.4334 33.6975 34.7617 34.0338L35.7146 34.9868L34.7217 35.9797L33.7688 35.0268C33.4404 34.6985 32.9199 34.6424 32.5275 34.9067C31.6867 35.4672 30.7578 35.8516 29.7648 36.0518C29.3084 36.1399 28.9721 36.5483 28.9721 37.0127V38.3581H27.5707V37.0127C27.5707 36.5403 27.2424 36.1399 26.7779 36.0518C25.785 35.8596 24.8561 35.4752 24.0152 34.9067C23.6229 34.6424 23.1104 34.6985 22.774 35.0268L21.8211 35.9797L20.8281 34.9868L21.7811 34.0338C22.1094 33.7055 22.1654 33.185 21.9012 32.7926C21.3406 31.9518 20.9563 31.0229 20.7561 30.0299C20.668 29.5735 20.2596 29.2372 19.7951 29.2372H18.4498V27.8358H19.7951C20.2596 27.8358 20.668 27.5075 20.7561 27.043C20.9482 26.05 21.3326 25.1211 21.9012 24.2803C22.1654 23.8879 22.1094 23.3754 21.7811 23.0391L20.8441 22.0862L21.8371 21.0932L22.79 22.0461C23.1184 22.3745 23.6389 22.4305 24.0312 22.1663C24.8721 21.6057 25.801 21.2213 26.7939 21.0211C27.2504 20.9331 27.5867 20.5247 27.5867 20.0602V18.7149H28.9881V20.0602C28.9881 20.5247 29.3164 20.9331 29.7809 21.0211C30.7738 21.2213 31.7027 21.6057 32.5436 22.1663C32.9359 22.4305 33.4484 22.3745 33.7848 22.0461L34.7217 21.0932Z" fill="#144071"/>
</svg>
