<svg width="39" height="39" viewBox="0 0 39 39" fill="none" xmlns="http://www.w3.org/2000/svg">
<g clip-path="url(#clip0_290_712)">
<path d="M33.75 14.2952H27.3591L20.5623 0.701557C20.3611 0.299143 19.95 0.045166 19.5 0.045166H14.75C14.4178 0.045166 14.1012 0.184326 13.8763 0.428432C13.6513 0.673131 13.5394 1.00014 13.5666 1.33123L13.9542 5.98267H11.1875C10.5317 5.98267 10 6.51437 10 7.17017C10 7.82596 10.5317 8.35767 11.1875 8.35767H14.1521L14.6468 14.2952H7.95383L2.29874 10.902C1.87257 10.6463 1.33219 10.6839 0.944838 10.9935C0.556897 11.3049 0.403858 11.8244 0.560979 12.2959L2.8107 19.0452L0.560979 25.7944C0.403858 26.2658 0.556897 26.7854 0.944838 27.0967C1.33159 27.4064 1.87198 27.4441 2.29874 27.1883L7.95383 23.7952H14.6468L14.1521 29.7327H11.1875C10.5317 29.7327 10 30.2644 10 30.9202C10 31.576 10.5317 32.1077 11.1875 32.1077H13.9542L13.5666 36.7591C13.5393 37.0902 13.6512 37.4172 13.8762 37.6619C14.1012 37.906 14.4178 38.0452 14.75 38.0452H19.5C19.95 38.0452 20.3611 37.7912 20.5622 37.3888L27.3591 23.7952H33.75C36.3691 23.7952 38.5 21.6643 38.5 19.0452C38.5 16.4261 36.3691 14.2952 33.75 14.2952ZM33.75 21.4202H26.625C26.175 21.4202 25.7639 21.6741 25.5628 22.0766L18.7659 35.6702H16.0407L17.121 22.7062C17.1482 22.3751 17.0363 22.0481 16.8113 21.8034C16.5864 21.5593 16.2697 21.4202 15.9375 21.4202H7.62505C7.40996 21.4202 7.19888 21.4787 7.01393 21.5895L3.8295 23.5L5.18919 19.4209C5.27038 19.1768 5.27038 18.9135 5.18919 18.6694L3.8295 14.5903L7.01393 16.5008C7.19888 16.6115 7.40996 16.6701 7.62505 16.6701H15.9375C16.2698 16.6701 16.5864 16.5309 16.8113 16.2868C17.0363 16.0421 17.1482 15.7151 17.121 15.384L16.0407 2.42017H18.7659L25.5628 16.0138C25.764 16.4162 26.1751 16.6702 26.625 16.6702H33.75C35.0598 16.6702 36.125 17.7354 36.125 19.0452C36.125 20.355 35.0599 21.4202 33.75 21.4202Z" fill="#144071"/>
</g>
<defs>
<clipPath id="clip0_290_712">
<rect width="38" height="38" fill="white" transform="translate(0.5 0.045166)"/>
</clipPath>
</defs>
</svg>
