<svg width="34" height="34" viewBox="0 0 34 34" fill="none" xmlns="http://www.w3.org/2000/svg">
<g clip-path="url(#clip0_290_723)">
<path d="M17.497 9.64383C13.4159 9.64383 10.0957 12.9641 10.0957 17.0452C10.0957 21.1263 13.4159 24.4465 17.497 24.4465C21.5781 24.4465 24.8984 21.1263 24.8984 17.0452C24.8984 12.9641 21.5781 9.64383 17.497 9.64383ZM17.497 22.2037C14.6527 22.2037 12.3385 19.8896 12.3385 17.0452C12.3385 14.2007 14.6526 11.8866 17.497 11.8866C20.3415 11.8866 22.6556 14.2007 22.6556 17.0452C22.6556 19.8896 20.3414 22.2037 17.497 22.2037Z" fill="#144071"/>
<path d="M17.4985 13.1483C15.3497 13.1483 13.6016 14.8964 13.6016 17.0452C13.6016 19.1939 15.3497 20.9421 17.4985 20.9421C19.6472 20.9421 21.3953 19.1939 21.3953 17.0452C21.3953 14.8964 19.6472 13.1483 17.4985 13.1483ZM17.4985 18.6993C16.5865 18.6993 15.8443 17.9572 15.8443 17.0452C15.8443 16.1332 16.5865 15.3911 17.4985 15.3911C18.4105 15.3911 19.1526 16.1332 19.1526 17.0452C19.1526 17.9572 18.4105 18.6993 17.4985 18.6993Z" fill="#144071"/>
<path d="M33.0856 20.8036L31.0623 19.6354C31.2238 18.7845 31.3054 17.9166 31.3054 17.0451C31.3054 16.1735 31.2238 15.3056 31.0623 14.4547L33.0856 13.2865C33.3432 13.1378 33.5311 12.8929 33.6081 12.6055C33.6851 12.3183 33.6447 12.0122 33.4961 11.7546L30.0786 5.83539C29.7689 5.29917 29.0836 5.11539 28.5467 5.42494L26.5207 6.5945C25.2016 5.45572 23.6755 4.57317 22.0368 4.00205V1.66661C22.0368 1.04728 21.5347 0.545166 20.9154 0.545166H14.0805C13.4612 0.545166 12.9591 1.04728 12.9591 1.66661V4.00239C11.3204 4.5735 9.79428 5.45594 8.47516 6.59483L6.44917 5.42517C5.91261 5.11539 5.22683 5.29928 4.91728 5.83561L1.49983 11.7548C1.35117 12.0124 1.31083 12.3185 1.38783 12.6057C1.46483 12.8931 1.65272 13.1379 1.91028 13.2867L3.93361 14.4549C3.77205 15.3058 3.6905 16.1737 3.6905 17.0453C3.6905 17.9168 3.77205 18.7847 3.93361 19.6356L1.91028 20.8038C1.65272 20.9525 1.46483 21.1974 1.38783 21.4848C1.31083 21.7721 1.35117 22.0782 1.49983 22.3357L4.91728 28.2549C5.22694 28.7913 5.9125 28.9752 6.44917 28.6654L8.47516 27.4958C9.79428 28.6346 11.3204 29.5172 12.9591 30.0883V32.4241C12.9591 33.0434 13.4612 33.5455 14.0805 33.5455H20.9154C21.5347 33.5455 22.0368 33.0434 22.0368 32.4241V30.0883C23.6755 29.5172 25.2016 28.6347 26.5207 27.4958L28.5467 28.6654C29.0834 28.9751 29.7691 28.7912 30.0786 28.2549L33.4961 22.3357C33.6447 22.0782 33.6851 21.7721 33.6081 21.4848C33.5311 21.1973 33.3432 20.9524 33.0856 20.8036ZM28.7029 14.1724C28.9415 15.1062 29.0625 16.0727 29.0625 17.0452C29.0625 18.0176 28.9415 18.9841 28.7029 19.9179C28.5784 20.4051 28.7934 20.9154 29.2287 21.1667L30.9929 22.1853L28.6969 26.1622L26.9294 25.1417C26.4937 24.8904 25.9438 24.9595 25.5845 25.3113C24.1941 26.6717 22.4752 27.6654 20.6139 28.1849C20.1293 28.3202 19.7941 28.7618 19.7941 29.2651V31.3024H15.2019V29.2651C15.2019 28.7618 14.8667 28.3202 14.3821 28.1849C12.5207 27.6654 10.8019 26.6718 9.4115 25.3113C9.05183 24.9595 8.50194 24.8904 8.06661 25.1417L6.29905 26.1622L4.00305 22.1853L5.76728 21.1667C6.20261 20.9154 6.41761 20.4051 6.29305 19.9179C6.0545 18.9842 5.9335 18.0176 5.9335 17.0452C5.9335 16.0727 6.0545 15.1063 6.29305 14.1724C6.41761 13.6853 6.20261 13.1749 5.76728 12.9236L4.00305 11.9051L6.29905 7.92817L8.06661 8.94861C8.50239 9.20005 9.05217 9.13083 9.4115 8.77906C10.8019 7.41861 12.5208 6.42494 14.3821 5.90539C14.8667 5.77017 15.2019 5.3285 15.2019 4.82528V2.78794H19.7941V4.82528C19.7941 5.3285 20.1293 5.77017 20.6139 5.90539C22.4753 6.42494 24.1941 7.4185 25.5845 8.77906C25.9443 9.13094 26.4941 9.20005 26.9294 8.94861L28.6969 7.92817L30.9929 11.9051L29.2287 12.9236C28.7935 13.1749 28.5785 13.6853 28.7029 14.1724Z" fill="#144071"/>
</g>
<defs>
<clipPath id="clip0_290_723">
<rect width="33" height="33" fill="white" transform="translate(0.998047 0.545166)"/>
</clipPath>
</defs>
</svg>
