<svg width="23" height="23" viewBox="0 0 23 23" fill="none" xmlns="http://www.w3.org/2000/svg">
<path d="M16.149 0H6.85095C3.07328 0 0 3.07328 0 6.85095V16.149C0 19.9267 3.07328 23 6.85095 23H16.149C19.9267 23 23 19.9267 23 16.149V6.85095C23 3.07328 19.9267 0 16.149 0ZM20.6885 16.149C20.6885 18.6536 18.6588 20.6885 16.149 20.6885H6.85095C4.34642 20.6885 2.31148 18.6588 2.31148 16.149V6.85095C2.31148 4.34642 4.3412 2.31148 6.85095 2.31148H16.149C18.6536 2.31148 20.6885 4.3412 20.6885 6.85095V16.149Z" fill="#1B4577"/>
<path d="M11.4991 5.55176C8.21707 5.55176 5.55078 8.21805 5.55078 11.5C5.55078 14.782 8.21707 17.4483 11.4991 17.4483C14.781 17.4483 17.4473 14.782 17.4473 11.5C17.4473 8.21805 14.781 5.55176 11.4991 5.55176ZM11.4991 15.1368C9.49021 15.1368 7.86226 13.5089 7.86226 11.5C7.86226 9.49119 9.49021 7.86324 11.4991 7.86324C13.5079 7.86324 15.1359 9.49119 15.1359 11.5C15.1359 13.5089 13.5079 15.1368 11.4991 15.1368Z" fill="#1B4577"/>
<path d="M18.888 5.5988C18.888 6.38669 18.2514 7.02326 17.4635 7.02326C16.6756 7.02326 16.0391 6.38669 16.0391 5.5988C16.0391 4.81092 16.6756 4.17435 17.4635 4.17435C18.2462 4.16913 18.888 4.81092 18.888 5.5988Z" fill="#1B4577"/>
</svg>
