<svg width="19" height="16" viewBox="0 0 19 16" fill="none" xmlns="http://www.w3.org/2000/svg">
<path d="M6.02402e-09 4.55467L9.20118 9.48C9.29348 9.52939 9.39597 9.55518 9.5 9.55518C9.60403 9.55518 9.70652 9.52939 9.79882 9.48L19 4.55556V13.1111C19 13.849 18.7257 14.559 18.2334 15.0953C17.741 15.6317 17.0679 15.9538 16.3521 15.9956L16.1932 16H2.80682C2.08988 16 1.4001 15.7177 0.878983 15.211C0.357862 14.7042 0.0449079 14.0114 0.00431829 13.2747L6.02402e-09 13.1111V4.55467ZM2.80682 6.20017e-09H16.1932C16.9101 -4.83082e-05 17.5999 0.28227 18.121 0.789041C18.6421 1.29581 18.9551 1.98862 18.9957 2.72533L19 2.88889V3.05244L9.5 8.13689L6.02402e-09 3.05244V2.88889C-4.69358e-05 2.15099 0.274251 1.44104 0.766626 0.904684C1.259 0.368326 1.93212 0.046221 2.64791 0.00444455L2.80682 6.20017e-09H16.1932H2.80682Z" fill="#1B4577"/>
</svg>
