<svg width="24" height="25" viewBox="0 0 24 25" fill="none" xmlns="http://www.w3.org/2000/svg">
<path d="M23.8464 5.6177C23.7954 5.29325 23.6469 4.99199 23.4207 4.75387C23.1944 4.51575 22.9012 4.35201 22.5798 4.28437L18.6664 3.42437C18.2468 3.33284 17.8124 3.3325 17.3926 3.42336C16.9728 3.51422 16.5774 3.69417 16.2331 3.95104L4.66645 12.3777L1.42645 12.2444C1.16599 12.235 0.909218 12.308 0.6926 12.4529C0.475981 12.5979 0.310531 12.8073 0.219748 13.0516C0.128966 13.2959 0.117466 13.5626 0.186884 13.8139C0.256302 14.0651 0.403107 14.288 0.606448 14.451L3.93978 17.071C4.33978 17.5577 4.60645 17.4644 11.2264 13.8577L11.8464 20.1377C11.8568 20.309 11.9155 20.4739 12.0158 20.6131C12.1161 20.7524 12.2539 20.8603 12.4131 20.9244C12.5277 20.9696 12.6499 20.9923 12.7731 20.991C13.0211 20.9835 13.2579 20.8864 13.4398 20.7177L15.0331 19.2644C15.1918 19.1174 15.2992 18.9235 15.3398 18.711L16.7998 10.7777C19.1798 9.44437 21.4331 8.19103 23.0398 7.2777C23.3272 7.11601 23.5585 6.87044 23.7026 6.57381C23.8468 6.27718 23.8969 5.94361 23.8464 5.6177ZM22.3798 6.1177C20.7131 7.06437 18.3798 8.39104 15.8731 9.76437L15.5998 9.9177L14.0464 18.3644L13.0664 19.2577L12.3331 11.7244L11.4464 12.1777C6.66645 14.8444 5.07311 15.6177 4.52645 15.8577L1.65978 13.5844L5.04645 13.731L17.0464 5.02437C17.2351 4.88335 17.4513 4.78374 17.6811 4.73204C17.9109 4.68035 18.1489 4.67773 18.3798 4.72437L22.2798 5.56437C22.3399 5.57526 22.3949 5.60507 22.4369 5.64944C22.4789 5.69381 22.5056 5.75043 22.5131 5.81104C22.5268 5.86969 22.5213 5.93121 22.4973 5.98646C22.4732 6.0417 22.432 6.08773 22.3798 6.1177Z" fill="#144071"/>
<path d="M4.66673 8.53778L7.04006 9.20445L8.13339 8.41111L5.46673 7.63778L6.66673 6.90445L10.3134 6.79778L11.8467 5.68445L6.66673 5.84445C6.50342 5.83561 6.34112 5.87503 6.20006 5.95778L4.44673 6.97778C4.30177 7.06365 4.18548 7.19051 4.11251 7.34237C4.03954 7.49423 4.01315 7.66429 4.03668 7.83112C4.06021 7.99795 4.1326 8.15408 4.24472 8.27984C4.35684 8.4056 4.50368 8.49535 4.66673 8.53778Z" fill="#144071"/>
</svg>
