<svg width="23" height="19" viewBox="0 0 23 19" fill="none" xmlns="http://www.w3.org/2000/svg">
<path d="M21.3274 0.211583L0.899068 7.87287C0.899068 7.87287 -0.0700764 8.18662 0.00623421 8.77034C0.0825448 9.35406 0.868544 9.62402 0.868544 9.62402L6.00424 11.2803L6.01188 11.2876V11.2803L18.3437 3.78685C18.3437 3.78685 19.0534 3.37095 19.0305 3.78685C19.0305 3.78685 19.1602 3.85982 18.7786 4.20275C18.3971 4.54568 9.08719 12.5426 9.08719 12.5426L9.07193 12.6958L17.4508 18.8395C18.8473 19.4232 19.3586 18.2047 19.3586 18.2047L22.9986 0.671261C22.9986 -0.496174 21.3198 0.211583 21.3274 0.211583Z" fill="#1B4577"/>
<path d="M12.2793 15.0453L8.95977 17.942C8.95977 17.942 8.70032 18.1317 8.41797 18.0149L9.05135 12.6375" fill="#1B4577"/>
</svg>
