<svg width="27" height="16" viewBox="0 0 27 16" fill="none" xmlns="http://www.w3.org/2000/svg">
<g clip-path="url(#clip0_2_1754)">
<path d="M0.259233 2.86432C0.0321837 2.30134 -0.257935 1.71441 0.429521 1.39698C1.82335 1.37902 3.21719 1.36105 4.61733 1.34308C5.22279 1.36105 5.5003 1.78628 5.82195 2.3792C6.76169 4.09808 7.73926 5.81097 8.91866 7.38612C9.30338 7.90118 9.953 8.09882 10.4639 7.27831C10.5206 6.17032 10.5774 5.06233 10.6341 3.95434C10.4449 2.66668 9.97192 1.90606 9.14571 1.8282C8.67269 1.39099 9.01326 1.03165 10.0728 0.839995C11.7568 0.498614 13.2263 0.654332 14.5192 0.810049C15.6103 0.87593 15.768 1.57666 15.7491 2.3792C15.7112 3.84654 15.6797 5.31986 15.6797 6.7872C16.0013 8.2785 16.8591 7.67958 17.4267 7.03276C18.4421 5.66125 19.3251 4.32567 20.063 2.8224C20.8262 1.2772 21.0343 1.39099 21.5704 1.38501C22.8507 1.37902 24.2634 1.31913 25.2852 1.35506C27.4169 1.23528 27.1709 2.13365 26.5718 3.08592C25.5374 4.74491 24.2067 6.24219 23.021 7.82332C22.302 8.75164 22.3146 9.33258 23.0777 9.83567C24.2067 11.0155 25.4302 12.1175 26.4583 13.3752C27.5746 14.7468 26.7547 15.1241 25.714 15.2259C24.4716 15.2259 23.2291 15.2259 21.9866 15.2259C20.9271 15.2439 19.9684 14.9923 19.2936 13.9203C17.7358 11.9618 16.5753 11.4228 16.1086 12.5248C15.9067 13.0099 15.7365 13.6627 15.7428 14.2976C15.7491 15.184 15.1878 15.2558 14.4246 15.2798C13.6047 15.2798 12.7533 15.4714 11.9586 15.2798C9.14571 14.603 6.44634 13.3573 3.81635 9.07505C2.63064 7.22441 1.44494 5.20008 0.259233 2.86432Z" fill="#1B4577"/>
</g>
<defs>
<clipPath id="clip0_2_1754">
<rect width="27" height="14.7273" fill="white" transform="translate(0 0.63623)"/>
</clipPath>
</defs>
</svg>
