<svg width="27" height="27" viewBox="0 0 27 27" fill="none" xmlns="http://www.w3.org/2000/svg">
<path d="M25.8742 10.9126C25.8742 9.3376 25.5367 7.6501 24.8617 6.3001C24.4117 5.7376 23.7367 5.2876 22.9492 5.1751C19.7992 4.8376 16.6492 4.7251 13.4992 4.8376C10.3492 4.8376 7.19922 4.9501 4.16172 5.1751C3.48672 5.2876 2.92422 5.5126 2.47422 5.9626C1.46172 6.8626 1.34922 8.5501 1.23672 9.7876C1.12422 12.2626 1.12422 14.6251 1.23672 17.1001C1.23672 17.8876 1.34922 18.5626 1.57422 19.3501C1.68672 19.9126 2.02422 20.4751 2.36172 20.9251C2.81172 21.3751 3.37422 21.7126 4.04922 21.8251C6.52422 22.1626 8.88672 22.2751 11.3617 22.1626C15.2992 22.1626 18.7867 22.1626 22.8367 21.8251C23.5117 21.7126 24.0742 21.3751 24.5242 20.9251C24.8617 20.5876 25.0867 20.2501 25.1992 19.8001C25.6492 18.5626 25.7617 17.3251 25.7617 15.9751C25.8742 15.4126 25.8742 11.5876 25.8742 10.9126ZM10.9117 16.7626V9.7876L17.5492 13.2751C15.7492 14.2876 13.2742 15.4126 10.9117 16.7626Z" fill="#1B4577"/>
</svg>
