<svg width="250" height="32" viewBox="0 0 250 32" fill="none" xmlns="http://www.w3.org/2000/svg">
<g clip-path="url(#clip0_102_151)">
<path d="M84.9153 0.675537V30.4168H75.175H74.5506C74.0511 30.4168 73.6765 30.2929 73.3019 30.1689C73.0521 29.9211 72.9272 29.6733 72.9272 29.3015C72.9272 28.6819 73.177 28.3101 73.8014 28.0623C74.3009 27.9384 74.5506 27.8144 74.6755 27.8144C74.8004 27.8144 74.8004 27.6905 74.9252 27.5666C75.0501 27.3187 75.175 26.947 75.175 26.4513V4.64104C75.175 4.14535 75.0501 3.77358 74.9252 3.52574C74.8004 3.40182 74.8004 3.2779 74.6755 3.2779C74.5506 3.2779 74.3009 3.15397 73.8014 3.03005C73.177 2.78221 72.9272 2.41044 72.9272 1.79083C72.9272 1.41907 73.0521 1.17122 73.3019 0.923381C73.6765 0.799459 74.0511 0.675537 74.5506 0.675537H75.175H84.9153ZM91.6585 15.0505C93.0321 15.2983 94.0311 15.5462 94.6555 15.794C95.4048 16.0419 96.0291 16.2897 96.5286 16.7854C97.5276 17.405 98.2769 18.2724 98.7764 19.2638C99.2759 20.2552 99.5256 21.3705 99.5256 22.7336C99.5256 25.2121 98.6515 27.1948 96.7784 28.558C95.7794 29.3015 94.7804 29.7972 93.6565 30.045C92.6575 30.2929 91.159 30.4168 89.2859 30.4168H86.6635V28.1862C87.2879 28.1862 87.6625 28.0623 88.0371 27.9384C88.4118 27.8144 88.6615 27.5666 88.9113 27.3187C89.4108 26.8231 89.6605 25.9556 89.6605 24.8403V19.8834C89.6605 19.1399 89.6605 18.6442 89.5356 18.1485C89.4108 17.7768 89.161 17.405 88.9113 17.0332C88.6615 16.7854 88.4118 16.5375 88.162 16.4136C87.9123 16.2897 87.4128 16.1658 86.9133 16.1658V13.9352C87.4128 13.9352 87.9123 13.8113 88.162 13.6873C88.4118 13.5634 88.7864 13.4395 89.0361 13.1916C89.2859 12.9438 89.4108 12.696 89.6605 12.3242C89.7854 11.9524 89.9103 11.7046 89.9103 11.3328V10.0936V6.37594C89.9103 6.00418 89.7854 5.63241 89.6605 5.13672C89.5356 4.76496 89.4108 4.39319 89.161 4.14535C88.9113 3.77358 88.5366 3.52574 88.2869 3.40182C87.9123 3.2779 87.5376 3.15397 86.9133 3.03005V0.675537H89.4108C92.7824 0.675537 95.2799 1.41907 97.0281 2.78221C97.7774 3.40182 98.4018 4.14535 98.9013 5.0128C99.2759 5.88026 99.5256 6.87163 99.5256 7.86301C99.5256 8.85438 99.2759 9.84576 98.9013 10.7132C98.5266 11.5807 97.9023 12.3242 97.153 12.9438C96.5286 13.4395 95.9043 13.8113 95.155 14.0591C94.156 14.4309 93.0321 14.6787 91.6585 15.0505Z" fill="#B1CFE9"/>
<path d="M112.138 25.4599V4.88888C112.138 4.02143 111.888 3.52574 111.389 3.40182L110.515 3.15397C109.765 3.03005 109.516 2.53437 109.516 1.91476C109.516 1.54299 109.64 1.17122 110.015 1.0473C110.265 0.799459 110.764 0.675537 111.389 0.675537H112.138H121.878H122.378L123.127 0.799459C123.751 0.923381 124.001 1.29515 124.001 1.91476C124.001 2.53437 123.751 2.90613 123.127 3.15397L122.378 3.40182C121.878 3.52574 121.753 4.02143 121.753 4.88888V23.1054C121.753 25.7078 120.879 27.8144 119.131 29.1776C118.257 29.7972 117.258 30.2929 116.009 30.6646C114.76 31.0364 113.387 31.1603 111.888 31.1603C111.638 31.1603 111.264 31.1603 110.639 31.1603V28.6819C110.764 28.558 110.764 28.558 110.889 28.558C111.139 28.3101 111.389 28.1862 111.514 28.0623C111.638 27.9384 111.763 27.6905 111.888 27.5666C112.013 26.6991 112.138 26.2034 112.138 25.4599ZM108.641 28.434V30.7886C106.768 30.5407 105.395 30.045 104.271 29.3015C103.272 28.6819 102.523 27.8144 102.023 26.947C101.524 25.9556 101.149 24.9642 101.149 23.8489C101.149 22.4858 101.648 21.3705 102.523 20.503C103.397 19.5117 104.521 19.1399 105.769 19.1399C107.018 19.1399 108.017 19.5117 108.891 20.3791C109.765 21.2466 110.14 22.2379 110.14 23.4772C110.14 24.3446 109.765 25.2121 109.266 26.0795C108.891 26.5752 108.267 27.0709 107.393 27.4427C107.143 27.5666 107.018 27.6905 107.018 27.6905C107.018 27.8144 107.018 27.8144 107.143 27.9384C107.268 28.0623 107.393 28.1862 107.642 28.1862C107.892 28.3101 108.267 28.3101 108.641 28.434ZM138.986 0.675537V30.4168H129.246H128.621C128.122 30.4168 127.747 30.2929 127.373 30.1689C127.123 29.9211 126.998 29.6733 126.998 29.3015C126.998 28.6819 127.248 28.3101 127.872 28.0623C128.372 27.9384 128.621 27.8144 128.746 27.8144C128.871 27.8144 128.871 27.6905 128.996 27.5666C129.121 27.3187 129.246 26.947 129.246 26.4513V4.64104C129.246 4.14535 129.121 3.77358 128.996 3.52574C128.871 3.40182 128.871 3.2779 128.746 3.2779C128.621 3.2779 128.372 3.15397 127.872 3.03005C127.248 2.78221 126.998 2.41044 126.998 1.79083C126.998 1.41907 127.123 1.17122 127.373 0.923381C127.622 0.675537 128.122 0.675537 128.621 0.675537H129.246H138.986V0.675537ZM140.984 0.675537H149.85V8.35869C149.85 8.85438 149.725 9.10223 149.6 9.35007C149.476 9.59791 149.101 9.59791 148.726 9.59791C148.352 9.59791 148.227 9.47399 147.977 9.35007C147.852 9.22615 147.727 8.9783 147.602 8.48262C147.103 6.74771 146.229 5.50849 145.105 4.64104C143.981 3.77358 142.607 3.2779 140.984 3.03005V0.675537ZM140.859 16.5375V14.0591C141.733 13.6873 142.358 13.1916 142.732 12.696C143.107 12.2003 143.482 11.5807 143.606 10.8371C143.731 10.3414 143.856 9.96968 144.106 9.72183C144.231 9.47399 144.605 9.35007 144.855 9.35007C145.355 9.35007 145.604 9.47399 145.854 9.84576C145.979 10.0936 145.979 10.4654 145.979 11.085V19.3877C145.979 20.1313 145.854 20.503 145.729 20.8748C145.604 21.1226 145.355 21.2466 144.855 21.2466C144.481 21.2466 144.231 21.1226 144.106 20.9987C143.856 20.7509 143.731 20.503 143.606 20.0074C143.357 19.016 142.982 18.2724 142.483 17.6528C142.233 17.0332 141.608 16.6615 140.859 16.5375ZM140.984 30.4168V28.0623C141.983 27.9384 142.732 27.6905 143.357 27.4427C143.981 27.1948 144.605 26.8231 145.23 26.2034C145.854 25.7078 146.354 25.0881 146.728 24.5925C147.103 23.9729 147.478 23.2293 147.852 22.3619C147.977 21.8662 148.227 21.6183 148.352 21.3705C148.477 21.2466 148.726 21.1226 149.101 21.1226C149.476 21.1226 149.85 21.2466 149.975 21.4944C150.1 21.7423 150.225 22.114 150.225 22.7336V30.4168H140.984ZM169.83 0.675537V26.2034C169.83 26.8231 169.955 27.1948 170.205 27.4427C170.33 27.5666 170.455 27.6905 170.58 27.6905C170.704 27.6905 171.079 27.8144 171.578 27.9384C172.328 28.0623 172.702 28.434 172.702 29.1776C172.702 29.5493 172.453 29.9211 172.078 30.045C171.828 30.1689 171.329 30.2929 170.704 30.2929H169.83H160.09H159.341C158.716 30.2929 158.217 30.1689 157.842 30.045C157.468 29.7972 157.343 29.5493 157.343 29.1776C157.343 28.558 157.717 28.1862 158.342 27.9384C158.966 27.8144 159.216 27.6905 159.341 27.6905C159.466 27.6905 159.59 27.5666 159.59 27.4427C159.84 27.1948 159.965 26.8231 159.965 26.2034V0.675537H169.83ZM177.323 0.675537V9.59791C177.323 9.96968 177.198 10.3414 176.948 10.5893C176.698 10.8371 176.449 10.9611 176.074 10.9611C175.699 10.9611 175.45 10.8371 175.2 10.5893C174.95 10.3414 174.825 9.96968 174.7 9.59791L174.451 8.23477C174.201 6.87163 173.826 5.75633 173.202 4.76496C172.827 4.14535 172.328 3.64966 171.578 3.2779V0.675537H177.323ZM152.473 0.675537H158.217V3.2779C157.592 3.64966 156.968 4.14535 156.593 4.76496C155.969 5.75633 155.594 6.87163 155.345 8.23477L155.095 9.59791C154.97 9.96968 154.845 10.3414 154.595 10.5893C154.346 10.8371 154.096 10.9611 153.721 10.9611C153.347 10.9611 152.972 10.8371 152.847 10.5893C152.597 10.3414 152.473 9.96968 152.473 9.59791V0.675537V0.675537Z" fill="#58595B"/>
<path fill-rule="evenodd" clip-rule="evenodd" d="M184.815 4.39331H250L246.504 7.98705H184.815V4.39331Z" fill="white"/>
<path fill-rule="evenodd" clip-rule="evenodd" d="M184.815 9.22607H245.13L241.634 12.8198H184.815V9.22607Z" fill="#D1D3D4"/>
<path fill-rule="evenodd" clip-rule="evenodd" d="M184.815 14.0591H240.385L236.763 17.6528H184.815V14.0591Z" fill="#A7A9AC"/>
<path fill-rule="evenodd" clip-rule="evenodd" d="M184.815 18.8921H235.515L231.893 22.3619H184.815V18.8921Z" fill="#808285"/>
<path fill-rule="evenodd" clip-rule="evenodd" d="M184.815 23.7251H230.645L227.023 27.1949H184.815V23.7251Z" fill="#58595B"/>
<path fill-rule="evenodd" clip-rule="evenodd" d="M65.1848 4.39331H0L3.4965 7.98705H65.1848V4.39331Z" fill="white"/>
<path fill-rule="evenodd" clip-rule="evenodd" d="M65.1848 9.22607H4.87012L8.36662 12.8198H65.1848V9.22607Z" fill="#D1D3D4"/>
<path fill-rule="evenodd" clip-rule="evenodd" d="M65.1848 14.0591H9.74023L13.2367 17.6528H65.1848V14.0591Z" fill="#A7A9AC"/>
<path fill-rule="evenodd" clip-rule="evenodd" d="M65.1848 18.8921H14.6104L18.1069 22.3619H65.1848V18.8921Z" fill="#808285"/>
<path fill-rule="evenodd" clip-rule="evenodd" d="M65.1846 23.7251H19.3555L22.9768 27.1949H65.1846V23.7251Z" fill="#58595B"/>
</g>
<defs>
<clipPath id="clip0_102_151">
<rect width="250" height="30.3609" fill="white" transform="translate(0 0.675537)"/>
</clipPath>
</defs>
</svg>
