<svg width="250" height="31" viewBox="0 0 250 31" fill="none" xmlns="http://www.w3.org/2000/svg">
<g clip-path="url(#clip0_5_94)">
<path d="M84.9151 0.25V30.22H75.1748H74.5505C74.051 30.22 73.6763 30.0952 73.3017 29.9703C73.052 29.7205 72.9271 29.4708 72.9271 29.0962C72.9271 28.4718 73.1768 28.0972 73.8012 27.8474C74.3007 27.7225 74.5505 27.5977 74.6753 27.5977C74.8002 27.5977 74.8002 27.4728 74.9251 27.3479C75.05 27.0982 75.1748 26.7235 75.1748 26.224V4.246C75.1748 3.7465 75.05 3.37188 74.9251 3.12213C74.8002 2.99725 74.8002 2.87238 74.6753 2.87238C74.5505 2.87238 74.3007 2.7475 73.8012 2.62263C73.1768 2.37288 72.9271 1.99825 72.9271 1.37388C72.9271 0.999251 73.052 0.749501 73.3017 0.49975C73.6763 0.374875 74.051 0.25 74.5505 0.25H75.1748H84.9151ZM91.6583 14.7355C93.032 14.9853 94.031 15.235 94.6554 15.4848C95.4046 15.7345 96.029 15.9843 96.5285 16.4838C97.5275 17.1081 98.2767 17.9823 98.7762 18.9813C99.2757 19.9803 99.5255 21.1041 99.5255 22.4778C99.5255 24.9753 98.6514 26.9733 96.7782 28.3469C95.7792 29.0962 94.7802 29.5957 93.6563 29.8454C92.6573 30.0952 91.1588 30.22 89.2857 30.22H86.6633V27.9723C87.2877 27.9723 87.6623 27.8474 88.037 27.7225C88.4116 27.5977 88.6613 27.3479 88.9111 27.0982C89.4106 26.5987 89.6603 25.7245 89.6603 24.6007V19.6056C89.6603 18.8564 89.6603 18.3569 89.5355 17.8574C89.4106 17.4828 89.1608 17.1081 88.9111 16.7335C88.6613 16.4838 88.4116 16.234 88.1618 16.1091C87.9121 15.9843 87.4126 15.8594 86.9131 15.8594V13.6116C87.4126 13.6116 87.9121 13.4868 88.1618 13.3619C88.4116 13.237 88.7862 13.1121 89.036 12.8624C89.2857 12.6126 89.4106 12.3629 89.6603 11.9883C89.7852 11.6136 89.9101 11.3639 89.9101 10.9893V9.74051V5.99426C89.9101 5.61963 89.7852 5.24501 89.6603 4.7455C89.5355 4.37088 89.4106 3.99625 89.1608 3.7465C88.9111 3.37188 88.5365 3.12213 88.2867 2.99725C87.9121 2.87238 87.5375 2.7475 86.9131 2.62263V0.25H89.4106C92.7822 0.25 95.2797 0.999251 97.028 2.37288C97.7772 2.99725 98.4016 3.7465 98.9011 4.62063C99.2757 5.49476 99.5255 6.49376 99.5255 7.49276C99.5255 8.49176 99.2757 9.49076 98.9011 10.3649C98.5265 11.239 97.9021 11.9883 97.1529 12.6126C96.5285 13.1121 95.9041 13.4868 95.1548 13.7365C94.1558 14.1111 93.032 14.3609 91.6583 14.7355Z" fill="#B1CFE9"/>
<path d="M112.138 25.225V4.49575C112.138 3.62163 111.888 3.12213 111.389 2.99725L110.514 2.7475C109.765 2.62263 109.515 2.12313 109.515 1.49875C109.515 1.12413 109.64 0.749501 110.015 0.624625C110.265 0.374875 110.764 0.25 111.389 0.25H112.138H121.878H122.378L123.127 0.374875C123.751 0.49975 124.001 0.874376 124.001 1.49875C124.001 2.12313 123.751 2.49775 123.127 2.7475L122.378 2.99725C121.878 3.12213 121.753 3.62163 121.753 4.49575V22.8524C121.753 25.4748 120.879 27.5977 119.131 28.9713C118.257 29.5957 117.258 30.0952 116.009 30.4698C114.76 30.8444 113.387 30.9693 111.888 30.9693C111.638 30.9693 111.264 30.9693 110.639 30.9693V28.4718C110.764 28.3469 110.764 28.3469 110.889 28.3469C111.139 28.0972 111.389 27.9723 111.513 27.8474C111.638 27.7225 111.763 27.4728 111.888 27.3479C112.013 26.4738 112.138 25.9743 112.138 25.225ZM108.641 28.222V30.5947C106.768 30.3449 105.395 29.8454 104.271 29.0962C103.272 28.4718 102.522 27.5977 102.023 26.7235C101.523 25.7245 101.149 24.7255 101.149 23.6017C101.149 22.228 101.648 21.1041 102.522 20.23C103.397 19.231 104.52 18.8564 105.769 18.8564C107.018 18.8564 108.017 19.231 108.891 20.1051C109.765 20.9793 110.14 21.9783 110.14 23.227C110.14 24.1011 109.765 24.9753 109.266 25.8494C108.891 26.3489 108.267 26.8484 107.393 27.223C107.143 27.3479 107.018 27.4728 107.018 27.4728C107.018 27.5977 107.018 27.5977 107.143 27.7225C107.268 27.8474 107.393 27.9723 107.642 27.9723C107.892 28.0972 108.267 28.0972 108.641 28.222ZM138.986 0.25V30.22H129.246H128.621C128.122 30.22 127.747 30.0952 127.373 29.9703C127.123 29.7205 126.998 29.4708 126.998 29.0962C126.998 28.4718 127.248 28.0972 127.872 27.8474C128.372 27.7225 128.621 27.5977 128.746 27.5977C128.871 27.5977 128.871 27.4728 128.996 27.3479C129.121 27.0982 129.246 26.7235 129.246 26.224V4.246C129.246 3.7465 129.121 3.37188 128.996 3.12213C128.871 2.99725 128.871 2.87238 128.746 2.87238C128.621 2.87238 128.372 2.7475 127.872 2.62263C127.248 2.37288 126.998 1.99825 126.998 1.37388C126.998 0.999251 127.123 0.749501 127.373 0.49975C127.622 0.25 128.122 0.25 128.621 0.25H129.246H138.986V0.25ZM140.984 0.25H149.85V7.99226C149.85 8.49176 149.725 8.74151 149.6 8.99126C149.476 9.24101 149.101 9.24101 148.726 9.24101C148.352 9.24101 148.227 9.11613 147.977 8.99126C147.852 8.86638 147.727 8.61663 147.602 8.11713C147.103 6.36888 146.229 5.12013 145.105 4.246C143.981 3.37188 142.607 2.87238 140.984 2.62263V0.25ZM140.859 16.234V13.7365C141.733 13.3619 142.358 12.8624 142.732 12.3629C143.107 11.8634 143.482 11.239 143.606 10.4898C143.731 9.99026 143.856 9.61563 144.106 9.36588C144.231 9.11613 144.605 8.99126 144.855 8.99126C145.355 8.99126 145.604 9.11613 145.854 9.49076C145.979 9.74051 145.979 10.1151 145.979 10.7395V19.1061C145.979 19.8554 145.854 20.23 145.729 20.6046C145.604 20.8544 145.355 20.9793 144.855 20.9793C144.481 20.9793 144.231 20.8544 144.106 20.7295C143.856 20.4798 143.731 20.23 143.606 19.7305C143.357 18.7315 142.982 17.9823 142.483 17.3579C142.233 16.7335 141.608 16.3589 140.859 16.234ZM140.984 30.22V27.8474C141.983 27.7225 142.732 27.4728 143.357 27.223C143.981 26.9733 144.605 26.5987 145.23 25.9743C145.854 25.4748 146.354 24.8504 146.728 24.3509C147.103 23.7265 147.478 22.9773 147.852 22.1031C147.977 21.6036 148.227 21.3539 148.352 21.1041C148.477 20.9793 148.726 20.8544 149.101 20.8544C149.476 20.8544 149.85 20.9793 149.975 21.229C150.1 21.4788 150.225 21.8534 150.225 22.4778V30.22H140.984ZM169.83 0.25V25.9743C169.83 26.5987 169.955 26.9733 170.205 27.223C170.33 27.3479 170.455 27.4728 170.579 27.4728C170.704 27.4728 171.079 27.5977 171.578 27.7225C172.328 27.8474 172.702 28.222 172.702 28.9713C172.702 29.3459 172.453 29.7205 172.078 29.8454C171.828 29.9703 171.329 30.0952 170.704 30.0952H169.83H160.09H159.341C158.716 30.0952 158.217 29.9703 157.842 29.8454C157.468 29.5957 157.343 29.3459 157.343 28.9713C157.343 28.3469 157.717 27.9723 158.342 27.7225C158.966 27.5977 159.216 27.4728 159.341 27.4728C159.466 27.4728 159.59 27.3479 159.59 27.223C159.84 26.9733 159.965 26.5987 159.965 25.9743V0.25H169.83ZM177.323 0.25V9.24101C177.323 9.61563 177.198 9.99026 176.948 10.24C176.698 10.4898 176.449 10.6146 176.074 10.6146C175.699 10.6146 175.45 10.4898 175.2 10.24C174.95 9.99026 174.825 9.61563 174.7 9.24101L174.451 7.86738C174.201 6.49376 173.826 5.36988 173.202 4.37088C172.827 3.7465 172.328 3.247 171.578 2.87238V0.25H177.323ZM152.473 0.25H158.217V2.87238C157.592 3.247 156.968 3.7465 156.593 4.37088C155.969 5.36988 155.594 6.49376 155.345 7.86738L155.095 9.24101C154.97 9.61563 154.845 9.99026 154.595 10.24C154.346 10.4898 154.096 10.6146 153.721 10.6146C153.347 10.6146 152.972 10.4898 152.847 10.24C152.597 9.99026 152.473 9.61563 152.473 9.24101V0.25Z" fill="white"/>
<path fill-rule="evenodd" clip-rule="evenodd" d="M184.815 3.99634H250L246.503 7.61772H184.815V3.99634Z" fill="white"/>
<path fill-rule="evenodd" clip-rule="evenodd" d="M184.815 8.86646H245.13L241.633 12.4878H184.815V8.86646Z" fill="#D1D3D4"/>
<path fill-rule="evenodd" clip-rule="evenodd" d="M184.815 13.7366H240.385L236.763 17.358H184.815V13.7366Z" fill="#A7A9AC"/>
<path fill-rule="evenodd" clip-rule="evenodd" d="M184.815 18.6067H235.514L231.893 22.1032H184.815V18.6067Z" fill="#808285"/>
<path fill-rule="evenodd" clip-rule="evenodd" d="M184.815 23.4768H230.644L227.023 26.9733H184.815V23.4768Z" fill="#58595B"/>
<path fill-rule="evenodd" clip-rule="evenodd" d="M65.1848 3.99634H0L3.4965 7.61772H65.1848V3.99634Z" fill="white"/>
<path fill-rule="evenodd" clip-rule="evenodd" d="M65.1848 8.86646H4.87013L8.36664 12.4878H65.1848V8.86646Z" fill="#D1D3D4"/>
<path fill-rule="evenodd" clip-rule="evenodd" d="M65.1848 13.7366H9.74026L13.2368 17.358H65.1848V13.7366Z" fill="#A7A9AC"/>
<path fill-rule="evenodd" clip-rule="evenodd" d="M65.1848 18.6067H14.6104L18.1069 22.1032H65.1848V18.6067Z" fill="#808285"/>
<path fill-rule="evenodd" clip-rule="evenodd" d="M65.1848 23.4768H19.3556L22.977 26.9733H65.1848V23.4768Z" fill="#58595B"/>
</g>
<defs>
<clipPath id="clip0_5_94">
<rect width="250" height="30.5944" fill="white" transform="translate(0 0.25)"/>
</clipPath>
</defs>
</svg>
