<svg width="26" height="11" viewBox="0 0 26 11" fill="none" xmlns="http://www.w3.org/2000/svg">
<g clip-path="url(#clip0_401_295)">
<path d="M25.0099 5.16435C25.0099 5.08101 24.9266 4.99768 24.8433 4.91435L20.6766 0.747681C20.3433 0.414347 19.8433 0.414347 19.5099 0.747681C19.1766 1.08101 19.1766 1.58101 19.5099 1.91435L22.2599 4.66435H15.9266C15.4266 4.66435 15.0933 5.08101 15.0933 5.49768C15.0933 5.91435 15.4266 6.33101 15.9266 6.33101H22.2599L19.5099 9.08101C19.1766 9.41435 19.1766 9.91435 19.5099 10.2477C19.8433 10.581 20.3433 10.581 20.6766 10.2477L24.8433 6.08101C24.9266 5.99768 25.0099 5.91435 25.0099 5.83101C25.0933 5.58101 25.0933 5.41435 25.0099 5.16435Z" fill="#B1CFE9"/>
</g>
<g clip-path="url(#clip1_401_295)">
<path d="M0.124105 5.16435C0.124105 5.08101 0.207438 4.99768 0.290771 4.91435L4.45744 0.747681C4.79077 0.414347 5.29077 0.414347 5.6241 0.747681C5.95744 1.08101 5.95744 1.58101 5.6241 1.91435L2.8741 4.66435H9.20744C9.70744 4.66435 10.0408 5.08101 10.0408 5.49768C10.0408 5.91435 9.70744 6.33101 9.20744 6.33101H2.8741L5.6241 9.08101C5.95744 9.41435 5.95744 9.91435 5.6241 10.2477C5.29077 10.581 4.79077 10.581 4.45744 10.2477L0.290771 6.08101C0.207438 5.99768 0.124105 5.91435 0.124105 5.83101C0.0407724 5.58101 0.0407724 5.41435 0.124105 5.16435Z" fill="#B1CFE9"/>
</g>
<defs>
<clipPath id="clip0_401_295">
<rect width="10" height="10" fill="white" transform="translate(15.0933 0.497681)"/>
</clipPath>
<clipPath id="clip1_401_295">
<rect width="10" height="10" fill="white" transform="matrix(-1 0 0 1 10.0408 0.497681)"/>
</clipPath>
</defs>
</svg>
