<svg width="11" height="19" viewBox="0 0 11 19" fill="none" xmlns="http://www.w3.org/2000/svg">
<g clip-path="url(#clip0_401_300)">
<path d="M5.2338 0.312704C5.15047 0.312704 5.06714 0.396037 4.9838 0.47937L0.817138 4.64604C0.483805 4.97937 0.483805 5.47937 0.817138 5.8127C1.15047 6.14604 1.65047 6.14604 1.98381 5.8127L4.7338 3.0627L4.73381 9.39604C4.73381 9.89604 5.15047 10.2294 5.56714 10.2294C5.98381 10.2294 6.40047 9.89604 6.40047 9.39604L6.40047 3.0627L9.15047 5.8127C9.48381 6.14604 9.9838 6.14604 10.3171 5.8127C10.6505 5.47937 10.6505 4.97937 10.3171 4.64604L6.15047 0.47937C6.06714 0.396037 5.9838 0.312704 5.90047 0.312704C5.65047 0.229371 5.4838 0.229371 5.2338 0.312704Z" fill="#B1CFE9"/>
</g>
<g clip-path="url(#clip1_401_300)">
<path d="M5.23381 18.6829C5.15047 18.6829 5.06714 18.5996 4.98381 18.5162L0.817139 14.3496C0.483806 14.0162 0.483806 13.5162 0.817139 13.1829C1.15047 12.8496 1.65047 12.8496 1.98381 13.1829L4.73381 15.9329L4.73381 9.59957C4.73381 9.09957 5.15047 8.76624 5.56714 8.76624C5.98381 8.76624 6.40047 9.09957 6.40047 9.59957L6.40047 15.9329L9.15047 13.1829C9.48381 12.8496 9.9838 12.8496 10.3171 13.1829C10.6505 13.5162 10.6505 14.0162 10.3171 14.3496L6.15047 18.5162C6.06714 18.5996 5.98381 18.6829 5.90047 18.6829C5.65047 18.7662 5.48381 18.7662 5.23381 18.6829Z" fill="#B1CFE9"/>
</g>
<defs>
<clipPath id="clip0_401_300">
<rect width="10" height="10" fill="white" transform="translate(0.567139 10.2294) rotate(-90)"/>
</clipPath>
<clipPath id="clip1_401_300">
<rect width="10" height="10" fill="white" transform="matrix(4.37114e-08 1 1 -4.37114e-08 0.567139 8.76624)"/>
</clipPath>
</defs>
</svg>
