<svg width="18" height="18" viewBox="0 0 18 18" fill="none" xmlns="http://www.w3.org/2000/svg">
<g clip-path="url(#clip0_401_273)">
<path d="M8.99998 8.18733C11.1815 8.18733 12.9563 6.51121 12.9563 4.45091C12.9563 2.3906 11.1815 0.714478 8.99998 0.714478C6.81848 0.714478 5.0437 2.3906 5.0437 4.45091C5.0437 6.51121 6.81848 8.18733 8.99998 8.18733ZM8.99998 2.50082C10.1386 2.50082 11.0648 3.37559 11.0648 4.45091C11.0648 5.52622 10.1386 6.40099 8.99998 6.40099C7.86141 6.40099 6.93512 5.52622 6.93512 4.45091C6.93512 3.37559 7.86141 2.50082 8.99998 2.50082Z" fill="#B1CFE9"/>
<path d="M8.99995 9.97369C5.00206 9.97369 1.74951 13.0455 1.74951 16.8213C1.74951 17.3146 2.17294 17.7145 2.69522 17.7145H15.3047C15.827 17.7145 16.2504 17.3146 16.2504 16.8213C16.2504 13.0455 12.9978 9.97369 8.99995 9.97369ZM3.72447 15.9282C4.17248 13.5619 6.3676 11.76 8.99995 11.76C11.6323 11.76 13.8274 13.5619 14.2754 15.9282H3.72447Z" fill="#B1CFE9"/>
</g>
<defs>
<clipPath id="clip0_401_273">
<rect width="18" height="17" fill="white" transform="translate(0 0.714478)"/>
</clipPath>
</defs>
</svg>
