<svg width="25" height="17" viewBox="0 0 25 17" fill="none" xmlns="http://www.w3.org/2000/svg">
<g clip-path="url(#clip0_401_281)">
<path d="M17.2761 6.29266C17.9781 6.89361 18.5585 7.60557 19.0055 8.40173C19.0565 8.49742 19.1585 8.55101 19.2604 8.55101C19.3075 8.55101 19.3545 8.53953 19.4016 8.51656L22.4683 6.88213C22.5349 6.84768 22.5859 6.78644 22.6094 6.71371C22.633 6.64098 22.6212 6.56443 22.5859 6.49553C21.9075 5.28598 21.029 4.21422 19.9702 3.30322C19.9114 3.25346 19.8369 3.22667 19.7585 3.23432C19.68 3.23815 19.6094 3.2726 19.5585 3.33002L17.2526 5.89075C17.2016 5.94817 17.1741 6.0209 17.182 6.09745C17.182 6.174 17.2173 6.2429 17.2761 6.29266Z" fill="#B1CFE9"/>
<path d="M17.786 2.13583C17.8605 1.99803 17.8056 1.82579 17.6644 1.75306C16.4173 1.10235 15.0761 0.681301 13.6722 0.497571C13.5114 0.478432 13.3663 0.585608 13.3428 0.742544L12.8722 4.12241C12.8487 4.27935 12.9624 4.42097 13.1232 4.44394C14.0448 4.56642 14.931 4.84202 15.7507 5.27072C15.7938 5.29369 15.8409 5.30517 15.8879 5.30517C15.9938 5.30517 16.0918 5.25158 16.1467 5.15589L17.786 2.13583Z" fill="#B1CFE9"/>
<path d="M19.6956 10.0706C19.8799 10.729 19.9701 11.4103 19.9701 12.1031C19.9701 12.218 19.9662 12.3366 19.9622 12.4668C19.9583 12.5433 19.9858 12.616 20.0367 12.6696C20.0877 12.727 20.1622 12.7577 20.2367 12.7615L23.7269 12.9184C23.7309 12.9184 23.7348 12.9184 23.7426 12.9184C23.8956 12.9184 24.025 12.7998 24.0328 12.6467C24.0407 12.4553 24.0446 12.2792 24.0446 12.0993C24.0446 11.0582 23.9034 10.0247 23.625 9.02565C23.6054 8.95293 23.5544 8.89168 23.4877 8.85341C23.4211 8.81513 23.3426 8.80747 23.2681 8.82661L19.8956 9.71847C19.7466 9.7644 19.6524 9.92134 19.6956 10.0706Z" fill="#B1CFE9"/>
<path d="M6.70752 1.92527L8.22517 4.99892C8.26046 5.06782 8.31928 5.11758 8.38987 5.14437C8.42125 5.15586 8.45262 5.15968 8.48791 5.15968C8.53105 5.15968 8.57419 5.15203 8.6134 5.13289C9.4487 4.73864 10.3428 4.49366 11.2722 4.40563C11.433 4.39031 11.5507 4.25252 11.535 4.09558L11.1977 0.700404C11.1899 0.62385 11.1546 0.554951 11.0918 0.509019C11.033 0.459259 10.9546 0.436292 10.8801 0.443948C9.47223 0.577918 8.11536 0.949205 6.84477 1.54633C6.69968 1.61523 6.63693 1.78365 6.70752 1.92527Z" fill="#B1CFE9"/>
<path d="M1.84455 6.49174L4.84455 8.24101C4.89161 8.2678 4.94259 8.28311 4.99357 8.28311C5.09161 8.28311 5.18965 8.23335 5.24455 8.14531C5.72298 7.36446 6.33083 6.6793 7.05632 6.10132C7.11514 6.05539 7.15436 5.98649 7.1622 5.90993C7.17004 5.83338 7.14651 5.76065 7.09945 5.70324L4.89553 3.05829C4.84847 3.00087 4.77789 2.9626 4.69945 2.95494C4.62102 2.94729 4.54651 2.97025 4.48769 3.01619C3.38573 3.88125 2.46416 4.92238 1.74259 6.10132C1.70338 6.16639 1.69161 6.24294 1.71122 6.31567C1.72691 6.3884 1.77789 6.45347 1.84455 6.49174Z" fill="#B1CFE9"/>
<path d="M0.048584 12.1032C0.048584 12.2831 0.0525056 12.4591 0.0603487 12.6505C0.0681918 12.8036 0.197604 12.9223 0.350545 12.9223C0.354466 12.9223 0.358388 12.9223 0.362309 12.9223L3.85251 12.7654C3.93094 12.7615 4.00152 12.7271 4.05251 12.6735C4.10349 12.6161 4.13094 12.5434 4.12702 12.4706C4.11917 12.3443 4.11917 12.2257 4.11917 12.107C4.11917 11.3147 4.24074 10.5376 4.47996 9.79123C4.52702 9.64195 4.44074 9.48119 4.2878 9.43525L0.954466 8.41708C0.801525 8.37115 0.636819 8.45536 0.58976 8.60464C0.232898 9.72999 0.048584 10.9089 0.048584 12.1032Z" fill="#B1CFE9"/>
<path d="M10.1269 12.2792C9.60926 12.7845 9.3269 13.4505 9.3269 14.1663C9.3269 14.8821 9.60926 15.5481 10.1269 16.0534C10.6446 16.5586 11.3269 16.8342 12.0602 16.8342C12.7936 16.8342 13.4759 16.5586 13.9936 16.0534C14.5112 15.5481 14.7936 14.8821 14.7936 14.1663C14.7936 14.0744 14.7896 13.9826 14.7779 13.8907L17.3583 9.16731C17.421 9.05248 17.3975 8.90703 17.2995 8.81899C17.2014 8.72713 17.0563 8.71182 16.9387 8.77689L12.2093 11.5022C12.1583 11.4984 12.1112 11.4984 12.0602 11.4984C11.3308 11.4984 10.6446 11.7778 10.1269 12.2792Z" fill="#B1CFE9"/>
</g>
<defs>
<clipPath id="clip0_401_281">
<rect width="24" height="16.3902" fill="white" transform="translate(0.048584 0.44397)"/>
</clipPath>
</defs>
</svg>
