<svg width="19" height="11" viewBox="0 0 19 11" fill="none" xmlns="http://www.w3.org/2000/svg">
<g clip-path="url(#clip0_401_305)">
<path d="M18.7524 5.16435C18.7524 5.08101 18.669 4.99768 18.5857 4.91435L14.419 0.747681C14.0857 0.414347 13.5857 0.414347 13.2524 0.747681C12.919 1.08101 12.919 1.58101 13.2524 1.91435L16.0024 4.66435H9.66903C9.16903 4.66435 8.83569 5.08101 8.83569 5.49768C8.83569 5.91435 9.16903 6.33101 9.66903 6.33101H16.0024L13.2524 9.08101C12.919 9.41435 12.919 9.91435 13.2524 10.2477C13.5857 10.581 14.0857 10.581 14.419 10.2477L18.5857 6.08101C18.669 5.99768 18.7524 5.91435 18.7524 5.83101C18.8357 5.58101 18.8357 5.41435 18.7524 5.16435Z" fill="#B1CFE9"/>
</g>
<g clip-path="url(#clip1_401_305)">
<path d="M0.382162 5.16435C0.382162 5.08101 0.465495 4.99768 0.548828 4.91435L4.7155 0.747681C5.04883 0.414347 5.54883 0.414347 5.88216 0.747681C6.21549 1.08101 6.21549 1.58101 5.88216 1.91435L3.13216 4.66435H9.46549C9.96549 4.66435 10.2988 5.08101 10.2988 5.49768C10.2988 5.91435 9.96549 6.33101 9.46549 6.33101H3.13216L5.88216 9.08101C6.21549 9.41435 6.21549 9.91435 5.88216 10.2477C5.54883 10.581 5.04883 10.581 4.7155 10.2477L0.548828 6.08101C0.465495 5.99768 0.382162 5.91435 0.382162 5.83101C0.298829 5.58101 0.298829 5.41435 0.382162 5.16435Z" fill="#B1CFE9"/>
</g>
<defs>
<clipPath id="clip0_401_305">
<rect width="10" height="10" fill="white" transform="translate(8.83569 0.497681)"/>
</clipPath>
<clipPath id="clip1_401_305">
<rect width="10" height="10" fill="white" transform="matrix(-1 0 0 1 10.2988 0.497681)"/>
</clipPath>
</defs>
</svg>
