<svg width="21" height="21" viewBox="0 0 21 21" fill="none" xmlns="http://www.w3.org/2000/svg">
<path d="M10.0487 19.2732C5.44617 19.2732 1.71533 15.5423 1.71533 10.9398C1.71533 6.33734 5.44617 2.60651 10.0487 2.60651C14.6512 2.60651 18.382 6.33734 18.382 10.9398C18.382 15.5423 14.6512 19.2732 10.0487 19.2732ZM8.14033 17.329C7.31818 15.5851 6.84189 13.6984 6.73783 11.7732H3.43367C3.59582 13.0556 4.12693 14.2633 4.96247 15.2496C5.79801 16.2359 6.90201 16.9583 8.14033 17.329ZM8.407 11.7732C8.53283 13.8057 9.11367 15.7148 10.0487 17.3998C11.0089 15.6703 11.5699 13.7477 11.6903 11.7732H8.407ZM16.6637 11.7732H13.3595C13.2554 13.6984 12.7792 15.5851 11.957 17.329C13.1953 16.9583 14.2993 16.2359 15.1349 15.2496C15.9704 14.2633 16.5015 13.0556 16.6637 11.7732ZM3.43367 10.1065H6.73783C6.84189 8.18133 7.31818 6.29458 8.14033 4.55067C6.90201 4.92141 5.79801 5.6438 4.96247 6.63009C4.12693 7.61637 3.59582 8.82409 3.43367 10.1065ZM8.40783 10.1065H11.6895C11.5693 8.13201 11.0086 6.20945 10.0487 4.47984C9.0884 6.20938 8.52746 8.13194 8.407 10.1065H8.40783ZM11.957 4.55067C12.7792 6.29458 13.2554 8.18133 13.3595 10.1065H16.6637C16.5015 8.82409 15.9704 7.61637 15.1349 6.63009C14.2993 5.6438 13.1953 4.92141 11.957 4.55067Z" fill="#B1CFE9"/>
</svg>
