<svg width="15" height="9" viewBox="0 0 15 9" fill="none" xmlns="http://www.w3.org/2000/svg">
<path d="M8.22199 8.04001L13.872 2.38001C13.9657 2.28705 14.0401 2.17645 14.0909 2.05459C14.1416 1.93273 14.1678 1.80202 14.1678 1.67001C14.1678 1.538 14.1416 1.40729 14.0909 1.28544C14.0401 1.16358 13.9657 1.05298 13.872 0.960012C13.6846 0.773761 13.4312 0.66922 13.167 0.66922C12.9028 0.66922 12.6493 0.773761 12.462 0.960012L7.46199 5.91001L2.51199 0.960012C2.32463 0.773761 2.07117 0.669219 1.80699 0.669219C1.5428 0.669219 1.28935 0.773761 1.10199 0.960012C1.0075 1.05263 0.932329 1.16307 0.880833 1.28495C0.829336 1.40682 0.802538 1.5377 0.801989 1.67001C0.802538 1.80232 0.829336 1.9332 0.880833 2.05508C0.932329 2.17695 1.0075 2.2874 1.10199 2.38001L6.75199 8.04001C6.84563 8.14152 6.95928 8.22253 7.08578 8.27793C7.21228 8.33334 7.34889 8.36194 7.48699 8.36194C7.62509 8.36194 7.76169 8.33334 7.88819 8.27793C8.01469 8.22253 8.12834 8.14152 8.22199 8.04001Z" fill="#1B4577"/>
</svg>
