<svg width="17" height="16" viewBox="0 0 17 16" fill="none" xmlns="http://www.w3.org/2000/svg">
<g clip-path="url(#clip0_2_517)">
<path d="M11.7341 0H5.26588C2.63793 0 0.5 2.13793 0.5 4.76588V11.2341C0.5 13.8621 2.63793 16 5.26588 16H11.7341C14.3621 16 16.5 13.8621 16.5 11.2341V4.76588C16.5 2.13793 14.3621 0 11.7341 0ZM14.892 11.2341C14.892 12.9764 13.48 14.392 11.7341 14.392H5.26588C3.52359 14.392 2.10799 12.98 2.10799 11.2341V4.76588C2.10799 3.02359 3.51996 1.60799 5.26588 1.60799H11.7341C13.4764 1.60799 14.892 3.01996 14.892 4.76588V11.2341Z" fill="white"/>
<path d="M8.5 3.86206C6.21688 3.86206 4.36207 5.71687 4.36207 7.99999C4.36207 10.2831 6.21688 12.1379 8.5 12.1379C10.7831 12.1379 12.6379 10.2831 12.6379 7.99999C12.6379 5.71687 10.7831 3.86206 8.5 3.86206ZM8.5 10.5299C7.10254 10.5299 5.97005 9.39745 5.97005 7.99999C5.97005 6.60253 7.10254 5.47005 8.5 5.47005C9.89746 5.47005 11.0299 6.60253 11.0299 7.99999C11.0299 9.39745 9.89746 10.5299 8.5 10.5299Z" fill="white"/>
<path d="M13.6397 3.89476C13.6397 4.44285 13.1969 4.88568 12.6488 4.88568C12.1007 4.88568 11.6579 4.44285 11.6579 3.89476C11.6579 3.34666 12.1007 2.90383 12.6488 2.90383C13.1933 2.9002 13.6397 3.34666 13.6397 3.89476Z" fill="white"/>
</g>
<defs>
<clipPath id="clip0_2_517">
<rect width="16" height="16" fill="white" transform="translate(0.5)"/>
</clipPath>
</defs>
</svg>
