<svg width="23" height="22" viewBox="0 0 23 22" fill="none" xmlns="http://www.w3.org/2000/svg">
<path d="M21.25 8.89166C21.25 7.60833 20.975 6.23333 20.425 5.13333C20.0584 4.675 19.5084 4.30833 18.8667 4.21666C16.3 3.94166 13.7334 3.85 11.1667 3.94166C8.60002 3.94166 6.03335 4.03333 3.55835 4.21666C3.00835 4.30833 2.55002 4.49166 2.18335 4.85833C1.35835 5.59166 1.26669 6.96666 1.17502 7.975C1.08335 9.99166 1.08335 11.9167 1.17502 13.9333C1.17502 14.575 1.26669 15.125 1.45002 15.7667C1.54169 16.225 1.81669 16.6833 2.09169 17.05C2.45835 17.4167 2.91669 17.6917 3.46669 17.7833C5.48335 18.0583 7.40835 18.15 9.42502 18.0583C12.6334 18.0583 15.475 18.0583 18.775 17.7833C19.325 17.6917 19.7834 17.4167 20.15 17.05C20.425 16.775 20.6084 16.5 20.7 16.1333C21.0667 15.125 21.1584 14.1167 21.1584 13.0167C21.25 12.5583 21.25 9.44166 21.25 8.89166ZM9.05835 13.6583V7.975L14.4667 10.8167C13 11.6417 10.9834 12.5583 9.05835 13.6583Z" fill="white"/>
</svg>
