<svg width="23" height="12" viewBox="0 0 23 12" fill="none" xmlns="http://www.w3.org/2000/svg">
<g clip-path="url(#clip0_2_515)">
<path d="M0.710735 1.81533C0.525732 1.35661 0.289338 0.878364 0.849488 0.619722C1.9852 0.605082 3.12092 0.590442 4.26177 0.575801C4.75512 0.590442 4.98123 0.936924 5.24332 1.42005C6.00903 2.82062 6.80557 4.21631 7.76656 5.49975C8.08004 5.91944 8.60936 6.08048 9.02561 5.41191C9.07186 4.50911 9.11812 3.6063 9.16437 2.7035C9.0102 1.65429 8.62477 1.03452 7.95157 0.971084C7.56614 0.614842 7.84365 0.32204 8.707 0.165879C10.0791 -0.112283 11.2765 0.0145977 12.33 0.141479C13.219 0.195159 13.3475 0.766123 13.3321 1.42005C13.3012 2.61566 13.2756 3.81614 13.2756 5.01175C13.5376 6.22688 14.2365 5.73888 14.6991 5.21183C15.5264 4.09431 16.2459 3.00606 16.8472 1.78117C17.469 0.522121 17.6386 0.614842 18.0754 0.609962C19.1186 0.605082 20.2697 0.556281 21.1022 0.585562C22.8392 0.487961 22.6388 1.21997 22.1506 1.99589C21.3078 3.34766 20.2235 4.56767 19.2573 5.856C18.6715 6.6124 18.6818 7.08577 19.3036 7.49569C20.2235 8.45706 21.2204 9.35498 22.0581 10.3798C22.9677 11.4973 22.2996 11.8048 21.4517 11.8877C20.4393 11.8877 19.4269 11.8877 18.4145 11.8877C17.5512 11.9024 16.7701 11.6974 16.2202 10.8239C14.9509 9.2281 14.0053 8.7889 13.625 9.68682C13.4606 10.0821 13.3218 10.614 13.3269 11.1313C13.3321 11.8536 12.8747 11.9121 12.2529 11.9316C11.5848 11.9316 10.8911 12.0878 10.2436 11.9316C7.95157 11.3802 5.75208 10.3651 3.60912 6.87592C2.64299 5.36799 1.67686 3.71854 0.710735 1.81533Z" fill="white"/>
</g>
<defs>
<clipPath id="clip0_2_515">
<rect width="22" height="12" fill="white" transform="translate(0.500061)"/>
</clipPath>
</defs>
</svg>
