<svg width="25" height="25" viewBox="0 0 25 25" fill="none" xmlns="http://www.w3.org/2000/svg">
<g clip-path="url(#clip0_96_256)">
<path d="M24.6142 5.50491C24.5632 5.18046 24.4147 4.8792 24.1885 4.64108C23.9622 4.40295 23.669 4.23922 23.3476 4.17158L19.4342 3.31158C19.0146 3.22005 18.5802 3.21971 18.1604 3.31057C17.7406 3.40143 17.3452 3.58138 17.0009 3.83824L5.43425 12.2649L2.19425 12.1316C1.93379 12.1223 1.67702 12.1952 1.4604 12.3401C1.24378 12.4851 1.07833 12.6946 0.987548 12.9389C0.896765 13.1832 0.885266 13.4499 0.954684 13.7011C1.0241 13.9523 1.17091 14.1752 1.37425 14.3382L4.70758 16.9582C5.10758 17.4449 5.37425 17.3516 11.9942 13.7449L12.6142 20.0249C12.6246 20.1962 12.6833 20.3611 12.7836 20.5003C12.8839 20.6396 13.0217 20.7475 13.1809 20.8116C13.2955 20.8568 13.4177 20.8795 13.5409 20.8782C13.7889 20.8707 14.0257 20.7736 14.2076 20.6049L15.8009 19.1516C15.9596 19.0046 16.067 18.8107 16.1076 18.5982L17.5676 10.6649C19.9476 9.33157 22.2009 8.07824 23.8076 7.16491C24.095 7.00322 24.3263 6.75765 24.4704 6.46102C24.6146 6.16438 24.6647 5.83082 24.6142 5.50491ZM23.1476 6.00491C21.4809 6.95158 19.1476 8.27824 16.6409 9.65158L16.3676 9.80491L14.8142 18.2516L13.8342 19.1449L13.1009 11.6116L12.2142 12.0649C7.43425 14.7316 5.84091 15.5049 5.29425 15.7449L2.42758 13.4716L5.81425 13.6182L17.8142 4.91158C18.0029 4.77056 18.2191 4.67095 18.4489 4.61925C18.6787 4.56755 18.9167 4.56494 19.1476 4.61158L23.0476 5.45158C23.1077 5.46247 23.1627 5.49228 23.2047 5.53665C23.2467 5.58102 23.2734 5.63763 23.2809 5.69824C23.2946 5.7569 23.2891 5.81842 23.2651 5.87367C23.241 5.92891 23.1998 5.97494 23.1476 6.00491Z" fill="#B1CFE9"/>
<path d="M5.43424 8.42487L7.80758 9.09153L8.90091 8.2982L6.23424 7.52487L7.43424 6.79153L11.0809 6.68487L12.6142 5.57153L7.43424 5.73153C7.27094 5.7227 7.10864 5.76211 6.96758 5.84487L5.21424 6.86487C5.06929 6.95074 4.953 7.0776 4.88003 7.22946C4.80706 7.38131 4.78067 7.55138 4.8042 7.71821C4.82773 7.88504 4.90011 8.04117 5.01223 8.16692C5.12436 8.29268 5.27119 8.38243 5.43424 8.42487Z" fill="#B1CFE9"/>
</g>
<defs>
<clipPath id="clip0_96_256">
<rect width="24" height="24" fill="white" transform="translate(0.767578 0.0649414)"/>
</clipPath>
</defs>
</svg>
