<svg width="20" height="21" viewBox="0 0 20 21" fill="none" xmlns="http://www.w3.org/2000/svg">
<g clip-path="url(#clip0_96_260)">
<path d="M10.5833 19.0649L10 19.4815L9.41667 18.9815C4.83333 14.9815 2.5 11.4815 2.5 8.39819C2.5 4.06486 5.91667 0.898193 10 0.898193C14.0833 0.898193 17.5 4.06486 17.5 8.39819C17.5 11.4815 15.1667 14.9815 10.5833 19.0649ZM4.16667 8.39819C4.16667 10.7315 6.08333 13.7315 10 17.3149C13.9167 13.8149 15.8333 10.8149 15.8333 8.39819C15.8333 4.98153 13.1667 2.56486 10 2.56486C6.83333 2.56486 4.16667 4.98153 4.16667 8.39819ZM10 4.23153C12.3333 4.23153 14.1667 6.06486 14.1667 8.39819C14.1667 10.7315 12.3333 12.5649 10 12.5649C7.66667 12.5649 5.83333 10.7315 5.83333 8.39819C5.83333 6.06486 7.66667 4.23153 10 4.23153ZM10 5.89819C8.58333 5.89819 7.5 6.98153 7.5 8.39819C7.5 9.81486 8.58333 10.8982 10 10.8982C11.4167 10.8982 12.5 9.81486 12.5 8.39819C12.5 6.98153 11.4167 5.89819 10 5.89819Z" fill="#B1CFE9"/>
</g>
<defs>
<clipPath id="clip0_96_260">
<rect width="20" height="20" fill="white" transform="translate(0 0.0649414)"/>
</clipPath>
</defs>
</svg>
