<svg width="17" height="17" viewBox="0 0 17 17" fill="none" xmlns="http://www.w3.org/2000/svg">
<g clip-path="url(#clip0_96_237)">
<path d="M8.76514 7.09822C10.7042 7.09822 12.2818 5.52069 12.2818 3.58158C12.2818 1.64247 10.7042 0.0649414 8.76514 0.0649414C6.82603 0.0649414 5.24844 1.64247 5.24844 3.58158C5.24844 5.52069 6.82603 7.09822 8.76514 7.09822ZM8.76514 1.7462C9.7772 1.7462 10.6006 2.56952 10.6006 3.58158C10.6006 4.59364 9.7772 5.41696 8.76514 5.41696C7.75307 5.41696 6.9297 4.59364 6.9297 3.58158C6.9297 2.56952 7.75307 1.7462 8.76514 1.7462Z" fill="#B1CFE9"/>
<path d="M8.76515 8.77954C5.21147 8.77954 2.32031 11.6707 2.32031 15.2244C2.32031 15.6886 2.69669 16.065 3.16094 16.065H14.3693C14.8336 16.065 15.21 15.6886 15.21 15.2244C15.21 11.6707 12.3188 8.77954 8.76515 8.77954ZM4.07583 14.3837C4.47406 12.1567 6.42528 10.4608 8.76515 10.4608C11.105 10.4608 13.0562 12.1567 13.4545 14.3837H4.07583Z" fill="#B1CFE9"/>
</g>
<defs>
<clipPath id="clip0_96_237">
<rect width="16" height="16" fill="white" transform="translate(0.765137 0.0649414)"/>
</clipPath>
</defs>
</svg>
