<svg width="16" height="15" viewBox="0 0 16 15" fill="none" xmlns="http://www.w3.org/2000/svg">
<g clip-path="url(#clip0_5_123)">
<path d="M14.8375 0.744677L0.626521 6.31652C0.626521 6.31652 -0.0476661 6.5447 0.00541955 6.96923C0.0585052 7.39375 0.605287 7.59009 0.605287 7.59009L4.17795 8.79467L4.18326 8.79998V8.79467L12.7619 3.34487C12.7619 3.34487 13.2556 3.0424 13.2397 3.34487C13.2397 3.34487 13.3299 3.39794 13.0645 3.64734C12.7991 3.89675 6.32261 9.7127 6.32261 9.7127L6.31199 9.82413L12.1408 14.2922C13.1123 14.7167 13.4679 13.8306 13.4679 13.8306L16.0001 1.07899C16.0001 0.229944 14.8322 0.744677 14.8375 0.744677Z" fill="white"/>
<path d="M8.54148 11.5329L6.23225 13.6396C6.23225 13.6396 6.05176 13.7775 5.85535 13.6926L6.29596 9.78174" fill="white"/>
</g>
<defs>
<clipPath id="clip0_5_123">
<rect width="16" height="13.8182" fill="white" transform="translate(0 0.59082)"/>
</clipPath>
</defs>
</svg>
