<svg width="17" height="17" viewBox="0 0 17 17" fill="none" xmlns="http://www.w3.org/2000/svg">
<path d="M13.0733 10.6973C13.3452 10.7542 13.6286 10.7033 13.8639 10.5555C14.0991 10.4076 14.2678 10.1744 14.3346 9.90468V9.90401C14.3685 9.76717 14.3751 9.62499 14.354 9.48561C14.3329 9.34623 14.2845 9.21237 14.2116 9.0917C14.1387 8.97102 14.0428 8.8659 13.9293 8.78233C13.8157 8.69876 13.6868 8.63839 13.55 8.60468L10.4993 7.84934L7.06196 3.30668L5.57929 3.15668L7.53329 7.54934L4.56729 7.25001L3.02596 4.69734L2.10596 4.90401L2.93262 8.58401L13.0733 10.6973ZM2.51196 12.5H14.512V13.8333H2.51196V12.5Z" fill="#144071"/>
</svg>
