<svg width="16" height="17" viewBox="0 0 16 17" fill="none" xmlns="http://www.w3.org/2000/svg">
<g clip-path="url(#clip0_5_119)">
<path d="M13.664 2.79596C12.16 1.29196 10.16 0.459961 8.032 0.459961C3.648 0.459961 0.064 4.02796 0.064 8.42796C0.064 9.83596 0.432 11.196 1.12 12.412L0 16.54L4.224 15.436C5.392 16.076 6.704 16.412 8.032 16.412C12.416 16.412 16 12.844 16 8.44396C16 6.29996 15.168 4.29996 13.664 2.79596ZM8.032 15.052C6.848 15.052 5.68 14.732 4.656 14.124L4.416 13.98L1.92 14.652L2.592 12.204L2.432 11.948C1.776 10.892 1.424 9.67596 1.424 8.42796C1.408 4.77996 4.384 1.80396 8.032 1.80396C9.808 1.80396 11.456 2.49196 12.72 3.73996C13.968 4.98796 14.656 6.65196 14.656 8.42796C14.656 12.076 11.68 15.052 8.032 15.052ZM11.664 10.092C11.472 9.99596 10.48 9.51596 10.304 9.45196C10.128 9.38796 9.984 9.35596 9.856 9.54796C9.728 9.73996 9.344 10.188 9.232 10.332C9.12 10.46 8.992 10.476 8.8 10.38C8.608 10.284 7.952 10.076 7.2 9.38796C6.608 8.85996 6.208 8.20396 6.096 8.01196C5.984 7.81996 6.08 7.70796 6.176 7.61196C6.272 7.51596 6.368 7.37196 6.48 7.25996C6.576 7.14796 6.608 7.06796 6.672 6.92396C6.736 6.79596 6.704 6.66796 6.656 6.57196C6.608 6.47596 6.208 5.49996 6.048 5.09996C5.888 4.71596 5.728 4.76396 5.6 4.76396C5.488 4.76396 5.344 4.76396 5.216 4.76396C5.088 4.76396 4.864 4.81196 4.688 5.01996C4.512 5.21196 3.984 5.70796 3.984 6.68396C3.984 7.65996 4.704 8.60396 4.8 8.74796C4.896 8.87596 6.208 10.892 8.208 11.756C8.688 11.964 9.056 12.076 9.344 12.172C9.824 12.316 10.256 12.3 10.592 12.252C10.976 12.188 11.776 11.772 11.936 11.308C12.096 10.844 12.096 10.444 12.048 10.364C12 10.236 11.872 10.188 11.664 10.092Z" fill="white"/>
</g>
<defs>
<clipPath id="clip0_5_119">
<rect width="16" height="16.08" fill="white" transform="translate(0 0.459961)"/>
</clipPath>
</defs>
</svg>
